<?xml version="1.0" standalone="no"?>
<!DOCTYPE svg PUBLIC "-//W3C//DTD SVG 20010904//EN"
 "http://www.w3.org/TR/2001/REC-SVG-20010904/DTD/svg10.dtd">
<svg version="1.0" xmlns="http://www.w3.org/2000/svg"
 width="800.000000pt" height="300.000000pt" viewBox="0 0 800.000000 300.000000"
 preserveAspectRatio="xMidYMid meet">
<metadata>
Created by potrace 1.16, written by Peter Selinger 2001-2019
</metadata>
<g transform="translate(0.000000,300.000000) scale(0.100000,-0.100000)"
fill="#000000" stroke="none">
<path d="M1259 2995 c-3 -1 -11 -45 -12 -70 -2 -17 -6 -36 -11 -43 -4 -7 -6
-15 -4 -17 2 -3 33 28 68 68 l63 72 -58 -55 c-33 -30 -53 -47 -46 -38 7 9 10
22 6 28 -4 6 3 22 15 35 l22 24 -21 -2 c-11 -1 -21 -1 -22 -2z"/>
<path d="M1291 2967 l-25 -32 32 29 c33 31 37 36 25 35 -5 0 -19 -14 -32 -32z"/>
<path d="M1487 2979 c3 -11 15 -24 27 -29 37 -14 47 -34 40 -79 -8 -48 -16
-56 -44 -41 -14 8 -25 8 -33 1 -9 -7 -11 0 -9 30 4 39 3 40 -17 28 -22 -14
-44 -94 -42 -153 1 -52 8 -117 13 -122 3 -2 4 -18 2 -35 -3 -25 -1 -30 12 -25
9 3 29 -2 45 -11 25 -15 29 -22 23 -48 -3 -16 -11 -42 -17 -57 -11 -25 -12
-26 -39 -12 -16 8 -33 12 -39 8 -7 -4 -9 10 -5 44 l6 51 -24 -22 c-17 -16 -29
-44 -39 -93 -13 -62 -13 -82 -1 -150 8 -44 12 -85 9 -91 -2 -8 13 -22 35 -33
39 -20 53 -51 30 -65 -5 -3 -10 -19 -10 -35 0 -36 -11 -43 -45 -28 -24 11 -26
15 -21 60 3 26 3 48 0 48 -2 0 -18 -13 -33 -29 -23 -23 -32 -46 -41 -101 -9
-51 -9 -74 -1 -84 21 -25 42 -99 31 -110 -5 -5 -10 -18 -10 -28 0 -23 -24 -23
-79 2 -24 11 -49 20 -56 20 -7 0 -37 -21 -66 -47 -84 -73 -89 -77 -89 -65 0 5
36 42 80 81 45 39 77 71 72 71 -5 0 -16 -7 -23 -17 -23 -27 -111 -94 -117 -88
-3 3 16 29 44 57 l49 51 -42 -32 c-71 -54 -48 -17 37 60 43 40 77 75 75 77 -2
3 -34 -23 -71 -57 -37 -34 -70 -58 -73 -55 -3 3 32 41 79 85 47 43 81 78 75
78 -5 0 -39 -26 -75 -59 -73 -66 -94 -71 -34 -8 36 38 31 44 -8 10 -28 -24
-21 -1 10 31 24 26 24 28 5 18 -44 -23 -23 8 52 75 41 37 75 72 75 77 0 5 -30
-19 -66 -52 -36 -34 -69 -59 -72 -56 -4 4 28 38 71 77 42 38 77 74 77 80 0 5
-30 -18 -67 -51 -37 -33 -69 -58 -71 -56 -3 2 31 39 74 81 59 57 63 62 16 20
-79 -70 -105 -75 -53 -11 15 18 15 19 -1 6 -10 -7 -18 -9 -18 -4 0 4 34 42 75
83 41 41 72 76 69 79 -2 3 -34 -24 -69 -59 -35 -35 -67 -61 -70 -59 -3 3 31
41 76 83 44 43 78 81 74 84 -3 3 -32 -21 -65 -53 -33 -33 -60 -54 -60 -48 0 6
33 40 72 76 40 36 70 69 65 73 -4 4 -25 -9 -46 -30 -21 -21 -40 -33 -42 -28
-6 16 -42 -14 -44 -35 0 -10 -5 -25 -9 -32 -5 -8 -9 -23 -10 -34 -1 -11 -7
-22 -15 -25 -10 -3 -12 2 -7 22 3 14 3 26 -2 26 -5 0 -47 -40 -94 -88 l-85
-89 -12 -74 c-6 -41 -18 -103 -27 -139 -8 -36 -19 -90 -25 -120 -6 -30 -15
-59 -20 -65 -7 -7 -8 -4 -3 8 5 13 2 16 -10 11 -9 -3 -16 -14 -17 -23 -4 -61
-9 -99 -29 -196 -12 -60 -25 -114 -30 -120 -9 -11 -49 -223 -75 -399 -19 -128
-22 -136 -44 -136 -14 -1 -14 -2 2 -11 14 -8 15 -14 5 -32 -6 -12 -22 -78 -35
-146 -16 -86 -28 -128 -40 -137 -27 -21 -36 -17 -29 14 18 84 27 135 23 139
-7 6 -37 -100 -37 -130 0 -42 -9 -55 -75 -102 -69 -49 -80 -51 -140 -31 -55
18 -112 28 -100 17 6 -4 43 -16 83 -26 39 -9 72 -18 72 -20 0 -1 -29 -21 -64
-44 -66 -42 -69 -47 -81 -113 -5 -33 -10 -38 -33 -39 -26 0 -26 -1 -4 -9 26
-11 28 -36 7 -87 -8 -19 -15 -51 -15 -69 l0 -34 760 0 c668 0 760 2 760 15 0
20 33 19 75 -1 19 -8 51 -14 75 -12 39 3 43 6 56 43 7 21 12 41 10 43 -2 2 2
28 9 57 7 30 10 57 8 59 -3 3 -16 0 -29 -6 -20 -9 -24 -19 -24 -53 0 -83 -12
-136 -29 -133 -20 4 -22 38 -8 100 6 27 8 50 5 53 -3 3 -17 1 -31 -6 -22 -10
-25 -17 -24 -65 0 -30 -2 -56 -5 -59 -2 -2 -21 0 -41 6 -24 6 -37 16 -37 27 0
27 50 395 54 399 2 2 21 -3 42 -12 38 -15 39 -16 36 -60 -3 -33 0 -45 9 -45 8
-1 1 -8 -14 -16 -35 -19 -30 -29 5 -13 23 10 25 16 21 54 -6 46 5 60 36 50 27
-8 34 -53 9 -61 -11 -3 -17 -8 -15 -10 2 -3 16 1 31 7 15 7 22 15 17 18 -6 4
-7 12 -2 19 5 9 38 1 129 -29 88 -29 120 -44 114 -53 -5 -6 -12 -56 -16 -111
-3 -55 -9 -124 -12 -152 -6 -51 -5 -53 18 -53 24 0 25 3 36 103 7 56 13 124
16 150 4 54 9 62 31 54 19 -8 19 -80 1 -214 l-12 -93 23 0 c29 0 40 26 24 53
-15 23 -5 157 11 157 5 0 6 5 2 11 -3 6 0 15 7 20 12 8 12 10 0 18 -28 18 -2
30 37 17 42 -15 41 -9 28 -144 -4 -51 -6 -95 -3 -98 2 -3 16 1 30 7 21 9 28
22 33 56 3 24 4 61 1 82 -6 45 4 66 27 58 14 -6 16 -18 10 -87 -6 -65 -4 -80
7 -80 30 0 41 19 46 80 6 67 6 67 78 45 l20 -6 -20 11 c-11 5 -32 14 -46 19
l-25 9 12 123 c7 68 11 125 10 127 -2 1 -15 -2 -29 -9 -24 -11 -26 -18 -32
-98 -8 -105 -12 -121 -31 -121 -19 0 -30 28 -16 42 6 6 8 17 5 24 -3 8 0 37 7
64 7 28 10 53 8 56 -3 2 -18 -1 -35 -6 -28 -10 -31 -15 -36 -77 -4 -36 -9 -68
-11 -70 -5 -5 -76 16 -76 22 0 1 7 19 15 39 8 20 11 36 6 36 -25 0 -61 -25
-61 -42 0 -10 -7 -18 -15 -18 -8 0 -15 4 -15 9 0 5 -10 8 -22 8 -26 -1 -198
54 -198 63 0 4 22 17 50 30 27 13 48 25 46 28 -3 2 -30 -10 -61 -26 -46 -25
-61 -29 -82 -21 -25 9 -25 11 -19 79 4 39 14 82 22 98 13 25 19 72 9 72 -2 0
-14 -5 -27 -11 -22 -9 -23 -16 -25 -111 -1 -55 -4 -103 -7 -106 -10 -9 -56 17
-56 31 0 8 9 44 21 81 12 37 19 69 16 72 -2 3 -15 0 -29 -6 -22 -10 -24 -17
-24 -76 0 -35 -3 -67 -7 -70 -4 -4 -25 -1 -47 6 -38 13 -40 15 -34 45 5 27 2
33 -15 38 -13 3 -21 13 -21 26 0 17 4 20 24 15 21 -5 23 -2 29 47 8 62 6 65
-34 74 l-32 7 7 67 c9 94 15 114 35 105 45 -18 50 -17 56 23 12 67 16 73 63
103 26 16 43 30 38 30 -5 0 -24 -10 -43 -21 -19 -12 -36 -19 -39 -16 -6 6 701
429 819 491 45 23 94 50 109 60 46 30 51 16 43 -115 -4 -69 -3 -119 2 -119 5
0 14 47 20 104 6 64 17 113 27 127 9 13 16 34 16 46 0 12 9 27 21 34 21 11 21
11 17 -120 -2 -72 -1 -131 2 -131 21 0 30 32 30 107 0 87 9 103 30 53 7 -17
16 -33 21 -36 4 -2 -1 15 -11 40 -16 34 -18 50 -10 71 5 14 10 36 10 48 0 17
18 32 76 66 41 24 78 40 82 36 4 -4 6 -63 4 -132 -4 -143 11 -161 21 -26 8
106 15 133 32 127 8 -4 14 10 19 44 6 44 18 62 43 62 3 0 3 -61 1 -135 -4
-160 13 -180 25 -29 8 109 12 128 26 119 10 -6 16 9 25 66 6 34 14 42 102 94
53 31 93 59 91 62 -3 2 -139 -75 -302 -173 l-297 -177 -20 24 c-19 23 -19 18
-3 -23 5 -14 -240 -164 -263 -162 -7 1 -188 -103 -401 -231 -214 -128 -397
-238 -408 -243 -15 -9 -37 -5 -94 13 -41 14 -81 29 -90 34 -9 5 -34 14 -56 20
-27 7 -44 19 -51 36 -7 15 -8 25 -2 25 6 0 10 5 10 11 0 5 -4 7 -10 4 -21 -13
8 40 33 58 36 28 53 12 19 -18 -19 -17 -22 -24 -12 -25 9 0 21 5 28 12 9 9 12
8 12 -6 0 -10 14 -23 38 -32 20 -8 60 -26 87 -38 89 -41 93 -41 100 -4 7 36
37 56 609 406 111 67 205 129 211 137 22 33 -8 22 -91 -33 -211 -138 -725
-454 -731 -448 -8 8 -23 -2 197 136 107 68 273 172 368 231 95 60 189 117 210
128 42 22 77 56 65 64 -12 8 -3 13 -441 -265 -214 -136 -396 -250 -405 -253
-23 -10 -10 34 20 62 12 12 23 30 23 40 0 10 21 32 49 50 l49 32 12 90 c10 72
16 91 29 91 12 0 13 2 3 8 -12 8 -12 37 2 171 9 82 14 93 36 81 10 -6 22 -10
27 -10 4 1 -4 8 -19 16 -19 10 -28 23 -28 39 0 14 4 25 8 25 5 0 7 14 4 30 -3
18 0 30 7 30 6 0 47 -18 91 -40 44 -22 80 -38 80 -35 0 3 -41 25 -91 51 -81
40 -90 48 -84 67 4 12 6 34 6 49 -1 15 3 29 8 32 5 3 88 -35 185 -85 97 -50
176 -88 176 -86 0 3 -81 47 -180 98 -175 91 -204 113 -169 134 7 5 5 13 -6 25
-15 17 -15 19 4 32 12 8 18 17 15 21 -3 3 -52 -32 -107 -77 -56 -45 -118 -93
-137 -106 -19 -13 -65 -50 -102 -82 -36 -32 -70 -58 -76 -58 -5 0 -17 -10 -28
-21 -23 -26 -149 -129 -190 -155 l-29 -19 32 41 c17 22 66 67 109 100 42 32
99 78 128 102 28 24 61 45 73 48 13 4 23 11 24 18 0 6 59 59 132 119 179 145
173 142 205 128 22 -9 24 -9 10 1 -9 7 -24 18 -33 23 -17 10 -12 45 6 45 6 0
128 -65 272 -144 309 -169 307 -168 307 -162 0 2 -35 23 -77 46 -289 157 -513
284 -513 291 0 4 7 14 15 23 11 11 12 17 4 22 -7 4 -17 1 -23 -7 -10 -14 -150
-131 -321 -269 -37 -30 -118 -98 -180 -150 -160 -135 -195 -163 -227 -182 -42
-26 -34 -5 12 33 23 19 64 55 93 80 49 44 139 120 367 309 217 181 241 200
255 200 8 0 15 7 15 15 0 8 8 15 17 15 13 0 14 3 5 12 -15 15 -16 48 -1 48 6
0 19 -5 30 -10 10 -6 19 -8 19 -6 0 3 -13 12 -29 21 -22 11 -28 20 -24 35 4
14 11 19 21 15 8 -3 105 -58 216 -121 110 -64 221 -128 246 -142 25 -13 50
-28 55 -32 33 -23 107 -61 101 -52 -3 6 -45 32 -93 59 -51 28 -94 60 -106 78
-10 17 -17 22 -13 13 3 -10 3 -18 -1 -18 -3 0 -97 53 -209 118 -169 97 -204
121 -204 140 0 25 3 26 33 11 15 -7 13 -3 -7 14 -20 16 -27 29 -23 41 6 15 9
16 39 1 l33 -16 -25 20 c-14 11 -28 21 -32 21 -10 0 -10 37 0 44 4 2 72 -36
152 -84 148 -91 233 -139 215 -123 -22 20 -84 63 -90 63 -4 0 -67 36 -141 81
-98 59 -134 85 -134 100 0 10 4 19 9 19 5 0 64 -34 131 -75 67 -41 123 -75
125 -75 2 0 36 -20 76 -45 40 -25 78 -45 84 -45 5 0 -31 25 -81 54 -56 34 -95
65 -102 81 -15 33 -15 38 1 30 6 -4 1 3 -13 14 -27 23 -100 64 -100 57 0 -3
18 -15 39 -27 35 -19 69 -64 57 -76 -2 -2 -51 24 -108 60 -73 45 -104 70 -106
85 -4 26 0 27 36 6 23 -14 22 -12 -6 13 -24 20 -31 34 -26 46 6 16 8 17 31 2
14 -9 27 -14 30 -12 3 3 -9 13 -26 22 -19 10 -31 23 -31 36 0 11 -4 19 -9 17
-5 -1 -91 -77 -191 -168 -100 -91 -229 -209 -288 -262 -59 -53 -109 -94 -112
-91 -5 4 53 60 219 211 141 127 331 305 331 308 0 12 -20 -1 -60 -37 -125
-111 -160 -140 -160 -132 0 5 6 15 13 22 18 21 -12 3 -40 -22 -27 -24 -31 -46
-5 -26 16 13 16 13 2 -5 -29 -37 -113 -117 -231 -221 -45 -41 -72 -54 -34 -18
17 16 37 37 45 48 14 17 14 17 -5 8 -11 -6 -29 -21 -40 -33 -11 -12 -32 -30
-46 -41 -25 -18 -26 -18 -23 4 1 12 3 26 3 31 1 4 8 5 17 2 17 -6 59 35 44 44
-4 3 -5 19 -3 37 4 26 34 60 158 175 143 134 175 168 157 168 -4 0 -74 -63
-155 -141 -81 -77 -147 -137 -147 -132 0 4 62 67 137 140 76 73 132 133 125
133 -8 0 -67 -52 -133 -117 -65 -64 -119 -112 -119 -106 0 5 47 56 105 113 58
56 103 105 100 108 -3 3 -48 -36 -100 -88 -52 -52 -95 -90 -95 -85 0 5 37 47
82 92 46 46 78 83 72 83 -5 0 -38 -29 -74 -65 -35 -35 -66 -62 -69 -59 -3 2
22 31 54 64 64 65 56 84 -10 23 l-40 -38 34 38 c38 40 32 51 -7 15 l-25 -23 6
23 c5 21 3 22 -78 22 -79 0 -83 -1 -78 -21z m653 -28 c0 -5 -73 -75 -162 -156
-90 -81 -203 -184 -253 -229 -175 -159 -178 -162 -174 -142 4 17 565 534 582
535 4 1 7 -3 7 -8z m0 -49 c0 -10 -90 -97 -200 -192 -47 -41 -130 -115 -185
-165 -177 -161 -230 -203 -214 -173 15 28 574 538 590 538 5 0 9 -4 9 -8z
m-30 -175 c0 -7 -73 -76 -162 -154 -90 -77 -172 -151 -183 -164 -18 -22 -17
-21 10 2 204 177 328 280 332 276 11 -11 -20 -46 -88 -103 -40 -32 -88 -74
-108 -92 -20 -18 -72 -63 -115 -100 -44 -37 -102 -87 -130 -112 -95 -86 -157
-133 -164 -125 -7 7 95 106 161 155 21 16 48 41 59 56 l21 27 -21 -12 c-12 -6
-22 -15 -22 -19 0 -12 -170 -155 -177 -149 -3 4 -2 14 2 24 5 10 7 26 6 36 -1
9 1 17 6 17 4 0 42 32 83 70 41 38 80 70 85 69 6 0 -30 -38 -80 -84 -49 -46
-86 -85 -82 -85 5 0 56 42 114 93 58 50 125 108 148 127 23 19 100 86 170 148
70 61 129 112 131 112 2 0 4 -6 4 -13z m-70 -10 c0 -2 -12 -14 -26 -28 l-27
-24 18 28 c14 22 35 36 35 24z m-129 -118 c-29 -27 -55 -48 -58 -46 -6 7 90
97 102 96 6 0 -14 -22 -44 -50z m-127 -114 c-27 -24 -53 -44 -59 -44 -5 0 14
22 44 49 30 28 57 47 60 45 3 -3 -17 -25 -45 -50z m276 41 c0 -2 -8 -10 -17
-17 -16 -13 -17 -12 -4 4 13 16 21 21 21 13z m20 -30 c0 -12 -118 -117 -284
-251 -54 -44 -97 -79 -236 -197 -93 -79 -128 -99 -92 -53 20 25 149 136 189
162 13 9 40 32 61 52 21 20 52 47 68 61 186 156 287 240 290 240 2 0 4 -6 4
-14z m-150 -80 c0 -2 -8 -10 -17 -17 -16 -13 -17 -12 -4 4 13 16 21 21 21 13z
m-69 -59 l-24 -22 19 27 c10 14 21 24 23 22 3 -3 -6 -15 -18 -27z m-696 -17
c-10 -11 -20 -18 -23 -15 -7 6 18 35 31 35 5 0 2 -9 -8 -20z m635 -27 c0 -5
-23 -28 -51 -52 -30 -25 -47 -36 -40 -24 6 11 27 34 48 51 42 35 43 35 43 25z
m235 -21 c-99 -83 -126 -103 -117 -86 12 22 62 71 62 60 0 -4 12 2 26 13 25
20 50 31 29 13z m-425 -86 c0 -2 -8 -10 -17 -17 -16 -13 -17 -12 -4 4 13 16
21 21 21 13z m60 -4 c0 -5 -38 -41 -85 -81 -47 -40 -85 -66 -84 -59 0 10 155
148 166 148 2 0 3 -4 3 -8z m176 -4 c4 -7 4 -10 -1 -6 -4 4 -15 2 -24 -5 -14
-11 -14 -10 -2 6 16 20 18 21 27 5z m197 -3 c2 -10 -291 -250 -368 -302 -22
-15 -53 -40 -70 -54 -83 -76 -200 -161 -208 -153 -11 11 52 67 229 204 52 40
181 143 294 234 101 81 120 92 123 71z m-143 -4 c0 -13 -122 -111 -131 -105
-4 2 -10 -4 -14 -15 -3 -11 -12 -21 -19 -24 -7 -3 -67 -50 -132 -104 -158
-130 -154 -127 -154 -115 0 14 10 23 120 112 51 41 115 94 142 118 27 23 53
40 59 37 5 -4 9 0 9 7 0 7 26 32 57 56 60 45 63 47 63 33z m-350 -38 c0 -5
-13 -17 -28 -27 l-27 -19 24 26 c26 28 31 32 31 20z m220 -13 c0 -5 -5 -10
-11 -10 -5 0 -7 5 -4 10 3 6 8 10 11 10 2 0 4 -4 4 -10z m-809 -69 c-5 -23 -5
-41 0 -41 5 0 2 -17 -7 -39 -20 -50 -53 -208 -48 -230 7 -28 -43 -243 -61
-260 -15 -15 -15 -14 -6 12 6 16 8 33 5 38 -3 6 -1 15 4 22 13 16 25 98 27
177 1 36 7 75 14 88 7 13 10 29 8 36 -3 7 -1 19 3 27 5 7 5 16 0 19 -5 3 -4
16 3 30 7 14 19 48 26 75 18 68 34 111 38 98 2 -6 0 -29 -6 -52z m579 -120
c-12 -24 -72 -72 -80 -65 -4 5 78 83 88 84 1 0 -2 -9 -8 -19z m-145 -40 c-3
-6 -11 -11 -17 -11 -6 0 -6 6 2 15 14 17 26 13 15 -4z m304 -97 c-6 -8 -14
-13 -16 -11 -2 2 -18 -10 -36 -27 -33 -31 -108 -89 -308 -241 -58 -44 -148
-114 -200 -155 -145 -117 -209 -163 -216 -157 -7 8 0 14 377 307 179 138 341
264 360 280 35 28 61 31 39 4z m-115 -33 c-10 -11 -84 -69 -164 -131 -80 -61
-154 -119 -165 -129 -79 -69 -318 -252 -323 -246 -3 3 14 24 38 46 35 32 38
36 12 19 -44 -29 -53 -18 -16 21 25 27 26 30 7 20 -19 -9 -23 -9 -23 2 0 18
358 307 380 307 16 0 12 -20 -5 -26 -8 -4 -15 -11 -15 -17 0 -5 9 -2 19 7 11
10 29 16 42 14 19 -3 12 -11 -47 -56 -127 -96 -199 -154 -254 -204 l-55 -50
65 49 c36 28 121 93 190 146 69 53 142 109 163 124 21 16 48 38 60 50 32 33
101 82 106 77 3 -3 -4 -13 -15 -23z m121 -5 c-9 -14 -58 -56 -108 -94 -51 -38
-148 -113 -217 -165 -117 -89 -166 -117 -109 -63 23 23 441 346 447 346 1 0
-5 -11 -13 -24z m-516 -33 c2 -2 -2 -11 -10 -20 -11 -15 -10 -15 9 1 15 13 26
16 32 10 7 -7 -13 -29 -56 -65 -37 -30 -87 -71 -111 -91 -44 -38 -83 -63 -83
-54 0 3 15 22 33 42 l32 38 -29 -19 c-29 -19 -29 -19 -18 0 12 23 55 64 125
119 26 21 46 41 43 43 -3 3 -33 -19 -68 -49 -88 -75 -98 -82 -98 -70 0 6 34
41 76 76 79 68 75 66 123 39z m571 18 c0 -6 -33 -35 -72 -65 -189 -144 -244
-184 -303 -226 -34 -25 -155 -116 -268 -202 -113 -87 -208 -158 -211 -158 -25
0 27 45 252 214 141 108 331 252 422 321 90 69 168 125 172 125 4 0 8 -4 8 -9z
m220 -6 c0 -8 -10 -24 -22 -36 l-23 -21 22 6 c19 6 21 4 15 -16 -12 -40 -26
-57 -53 -60 -14 -2 -38 -11 -52 -21 -14 -9 -31 -17 -36 -17 -5 0 -12 -13 -16
-29 -6 -30 -45 -71 -85 -91 -18 -8 -14 -2 15 25 37 34 38 36 8 18 -18 -10 -68
-43 -113 -73 -76 -52 -98 -75 -66 -68 21 4 21 -15 0 -27 -9 -5 -27 -19 -38
-30 l-21 -20 -3 23 c-4 29 -11 28 -52 -8 -28 -24 -30 -30 -13 -25 12 3 24 2
27 -4 5 -8 -5 -15 -26 -20 -4 -1 -19 -13 -33 -27 -26 -26 -56 -25 -34 2 23 28
-9 13 -77 -36 -38 -27 -105 -74 -149 -104 -44 -30 -127 -89 -185 -131 -57 -42
-106 -71 -108 -65 -5 13 -13 7 200 161 92 66 171 126 175 132 9 15 -22 -5
-155 -100 -68 -48 -102 -68 -100 -56 2 9 37 41 78 70 89 64 270 205 270 210 0
8 -16 -3 -240 -169 -194 -143 -215 -157 -209 -138 3 8 61 57 129 108 386 286
530 392 540 394 6 2 31 22 55 45 25 23 57 50 72 60 16 9 48 33 72 52 l44 36
-8 -33 c-4 -19 -3 -32 3 -32 13 0 33 25 26 32 -3 3 -1 8 3 11 17 11 13 -47 -4
-66 -16 -18 -14 -18 25 3 23 13 42 28 42 32 0 5 -9 4 -20 -2 -17 -9 -20 -8
-20 8 0 10 3 22 8 26 4 4 7 13 7 19 0 7 9 12 20 12 11 0 20 5 20 12 0 6 4 15
9 20 5 5 6 3 2 -4 -11 -19 5 -15 34 7 30 24 40 25 40 5z m-215 -46 c-3 -8 -14
-20 -24 -26 -27 -17 -22 12 5 31 22 16 27 15 19 -5z m-535 -22 c-20 -17 -87
-74 -149 -125 -86 -71 -116 -90 -122 -80 -13 20 -11 31 5 25 7 -3 70 42 146
104 73 60 137 109 144 109 6 0 -5 -15 -24 -33z m-406 -78 c-9 -46 -19 -87 -23
-92 -8 -8 12 125 24 161 15 44 14 15 -1 -69z m476 87 c0 -2 -33 -30 -72 -62
-40 -31 -109 -87 -153 -124 -117 -97 -115 -95 -115 -79 0 8 28 37 62 64 34 28
104 85 156 128 79 65 122 91 122 73z m399 -43 c-22 -26 -94 -70 -107 -65 -8 2
11 22 45 47 55 40 88 50 62 18z m-135 -88 c-4 -8 -13 -15 -22 -15 -8 0 -12 -3
-9 -6 9 -9 -63 -65 -74 -58 -14 9 1 26 18 20 8 -3 12 -2 8 3 -3 5 14 23 37 40
48 36 49 36 42 16z m-164 -125 c-12 -17 -26 -27 -32 -24 -6 4 2 16 18 30 38
31 40 30 14 -6z m-160 -25 c0 -13 -339 -269 -347 -261 -8 7 17 28 190 163 116
89 157 115 157 98z m477 -15 c-14 -11 -29 -20 -34 -20 -10 1 39 39 51 40 5 0
-3 -9 -17 -20z m-900 -62 c-3 -7 -5 -2 -5 12 0 14 2 19 5 13 2 -7 2 -19 0 -25z
m836 14 c-2 -10 -13 -23 -24 -30 -28 -18 -26 12 3 32 28 20 27 20 21 -2z
m-383 -9 c-8 -3 -22 -11 -30 -17 -13 -10 -13 -9 -1 7 7 9 21 17 30 16 13 0 14
-1 1 -6z m-69 -50 c-8 -17 -279 -224 -301 -231 -6 -2 -10 1 -10 6 0 9 306 242
317 242 2 0 -1 -8 -6 -17z m365 2 c-3 -20 -15 -32 -59 -54 -51 -26 -46 -9 9
34 54 40 53 40 50 20z m-129 -90 c0 -18 -30 -40 -237 -180 -80 -54 -164 -113
-188 -131 -24 -18 -50 -30 -58 -27 -8 3 -14 6 -14 7 0 1 52 37 115 81 64 44
166 115 227 158 61 42 114 75 116 72 3 -3 11 4 19 15 17 24 20 25 20 5z m-90
-10 c0 -8 -4 -12 -9 -9 -5 3 -6 10 -3 15 9 13 12 11 12 -6z m-547 -15 c0 -5
-5 -10 -11 -10 -5 0 -7 5 -4 10 3 6 8 10 11 10 2 0 4 -4 4 -10z m524 1 c3 -5
-1 -14 -8 -20 -12 -10 -14 -9 -11 6 2 10 4 19 4 21 2 5 10 2 15 -7z m166 -21
c0 -5 -5 -10 -11 -10 -5 0 -7 5 -4 10 3 6 8 10 11 10 2 0 4 -4 4 -10z m-210
-13 c0 -8 -12 -20 -27 -28 -15 -8 -36 -22 -46 -32 -10 -10 -22 -15 -27 -12 -6
4 -10 2 -10 -4 0 -14 -91 -82 -101 -75 -5 3 -9 1 -9 -5 0 -15 -130 -102 -148
-99 -8 2 70 62 174 135 104 73 190 132 192 133 1 0 2 -6 2 -13z m147 -2 c0
-26 -416 -309 -432 -293 -7 6 -5 12 5 18 11 6 418 283 426 289 0 1 1 -6 1 -14z
m133 -187 c30 -11 57 -22 59 -24 2 -1 -2 -41 -9 -87 l-12 -84 -69 22 c-38 12
-72 24 -75 28 -3 3 -1 45 6 92 10 73 15 85 29 80 9 -4 41 -16 71 -27z m-828
-120 c-7 -7 -12 -8 -12 -2 0 14 12 26 19 19 2 -3 -1 -11 -7 -17z m147 -39
c-18 -11 -22 -5 -14 22 7 20 8 21 17 4 8 -12 7 -20 -3 -26z m-19 -48 c0 -5 -6
-14 -14 -20 -12 -10 -13 -8 -9 8 5 21 23 30 23 12z m-209 -108 c-12 -20 -14
-14 -5 12 4 9 9 14 11 11 3 -2 0 -13 -6 -23z m399 -167 c0 -8 -7 -16 -15 -20
-15 -5 -21 14 -8 27 11 12 23 8 23 -7z m-408 -28 c-7 -7 -12 -8 -12 -2 0 14
12 26 19 19 2 -3 -1 -11 -7 -17z m75 7 c0 -8 -4 -15 -9 -15 -10 0 -11 14 -1
23 9 10 10 9 10 -8z m203 -60 c0 -8 -4 -15 -10 -15 -5 0 -10 7 -10 15 0 8 5
15 10 15 6 0 10 -7 10 -15z m704 -24 c11 -4 15 -10 10 -13 -10 -6 -54 8 -54
17 0 7 21 5 44 -4z m-824 -46 c0 -8 -4 -15 -10 -15 -5 0 -10 7 -10 15 0 8 5
15 10 15 6 0 10 -7 10 -15z m-116 -69 c-3 -9 -10 -13 -16 -10 -5 3 -4 12 3 20
15 18 22 13 13 -10z m256 -46 c0 -5 -4 -10 -10 -10 -5 0 -10 5 -10 10 0 6 5
10 10 10 6 0 10 -4 10 -10z m-113 -32 c-2 -33 -14 -51 -29 -42 -4 3 -4 13 1
22 5 9 12 25 15 35 9 27 15 20 13 -15z m-112 -89 c0 -7 -8 -15 -17 -17 -18 -3
-25 18 -11 32 10 10 28 1 28 -15z"/>
<path d="M1245 1598 l-40 -42 42 33 c45 34 60 51 46 51 -5 0 -27 -19 -48 -42z"/>
<path d="M1179 1543 c-13 -16 -12 -17 4 -4 9 7 17 15 17 17 0 8 -8 3 -21 -13z"/>
<path d="M1097 1481 c-82 -68 -94 -83 -20 -26 56 42 92 76 82 74 -2 0 -30 -22
-62 -48z"/>
<path d="M1129 1683 l-24 -28 28 24 c25 23 32 31 24 31 -2 0 -14 -12 -28 -27z"/>
<path d="M1069 1633 l-24 -28 28 24 c25 23 32 31 24 31 -2 0 -14 -12 -28 -27z"/>
<path d="M1585 1512 c-16 -11 -37 -27 -45 -37 -14 -17 -14 -17 15 -3 26 14 75
58 64 58 -2 0 -17 -8 -34 -18z"/>
<path d="M1563 1434 c-20 -18 -22 -22 -7 -15 21 10 52 41 41 41 -3 0 -19 -12
-34 -26z"/>
<path d="M1420 1389 c-22 -18 -22 -19 -3 -10 12 6 25 16 28 21 9 15 3 12 -25
-11z"/>
<path d="M2035 2989 c-11 -17 1 -21 15 -4 8 9 8 15 2 15 -6 0 -14 -5 -17 -11z"/>
<path d="M2196 2992 c5 -5 26 -19 47 -32 38 -22 38 -22 26 -2 -7 11 -16 19
-20 17 -3 -3 -15 2 -25 10 -20 15 -45 21 -28 7z"/>
<path d="M2368 2939 c52 -33 96 -58 99 -56 5 5 -172 117 -184 117 -5 0 34 -28
85 -61z"/>
<path d="M2550 2996 c0 -2 7 -7 16 -10 8 -3 12 -2 9 4 -6 10 -25 14 -25 6z"/>
<path d="M2660 2980 c14 -11 30 -20 35 -20 6 0 -1 9 -15 20 -14 11 -29 20 -35
20 -5 0 1 -9 15 -20z"/>
<path d="M2867 2950 c71 -50 93 -59 93 -39 0 5 -4 7 -10 4 -5 -3 -39 14 -74
39 -35 26 -67 46 -72 46 -4 0 24 -22 63 -50z"/>
<path d="M2880 2996 c0 -2 19 -15 43 -30 l42 -27 -35 30 c-32 27 -50 38 -50
27z"/>
<path d="M3000 2938 c0 -64 -15 -268 -25 -345 -6 -38 -4 -41 15 -36 16 4 20 1
20 -18 0 -19 2 -21 10 -9 7 10 10 11 10 2 0 -7 -8 -16 -17 -19 -10 -4 -23 -14
-30 -22 -11 -14 -12 -13 -13 7 0 23 0 23 -44 -8 -24 -18 -49 -29 -55 -26 -6 4
-9 1 -5 -7 3 -8 -2 -17 -11 -21 -15 -5 -63 19 -165 83 -13 9 -21 11 -17 4 4
-6 43 -32 88 -58 l81 -48 -46 -42 c-41 -37 -58 -65 -40 -65 8 0 56 37 106 82
59 53 87 66 99 48 7 -11 -1 -24 -28 -48 l-38 -34 48 27 c97 55 53 15 -107 -96
-122 -85 -161 -117 -154 -126 7 -9 6 -15 -5 -19 -9 -3 -18 -12 -21 -20 -4 -9
-2 -12 5 -8 7 4 9 0 5 -14 -5 -15 -1 -25 17 -37 14 -9 31 -29 37 -46 7 -16 15
-28 17 -26 2 3 -4 21 -14 41 -11 25 -14 39 -7 44 15 10 790 534 812 549 16 11
27 7 83 -33 35 -25 63 -50 61 -55 -3 -12 5 -11 58 6 26 8 34 14 19 13 -18 -2
-53 18 -118 65 -51 38 -99 66 -106 63 -8 -3 -195 -129 -415 -281 -346 -238
-453 -308 -430 -283 5 6 630 436 767 528 48 32 82 62 83 72 0 41 34 25 188
-90 17 -13 32 -22 32 -19 0 6 -187 146 -205 153 -8 3 -88 -46 -189 -115 -170
-118 -206 -139 -173 -103 15 17 15 19 -14 36 -30 17 -30 17 -79 -18 -28 -20
-50 -31 -50 -26 0 6 5 10 11 10 8 0 7 6 -2 18 -13 16 -13 16 5 2 18 -14 19
-13 13 4 -6 16 -5 17 8 6 9 -8 15 -8 15 -2 0 6 9 14 20 17 15 5 20 15 20 40 0
19 5 37 10 40 6 3 10 15 10 25 0 10 8 21 19 25 41 13 51 39 57 141 3 55 7 107
9 117 3 16 -3 18 -53 15 l-57 -3 -10 -136 c-6 -81 -15 -142 -23 -151 -7 -9
-10 -22 -6 -31 4 -10 -9 -25 -40 -47 -25 -17 -46 -27 -46 -23 0 22 31 332 35
361 5 27 3 32 -15 32 -18 0 -20 -6 -20 -62z m631 -335 c13 -16 12 -17 -3 -4
-17 13 -22 21 -14 21 2 0 10 -8 17 -17z"/>
<path d="M3257 2903 c-9 -134 -9 -169 2 -158 12 14 25 255 13 255 -5 0 -12
-44 -15 -97z"/>
<path d="M3325 2906 c-8 -102 -6 -119 11 -108 6 4 14 51 18 105 5 80 4 97 -8
97 -11 0 -16 -23 -21 -94z"/>
<path d="M3430 2923 c0 -43 -4 -83 -8 -89 -4 -7 -23 -19 -42 -27 -19 -9 -63
-37 -97 -62 -55 -41 -63 -44 -63 -26 0 25 -8 26 -34 6 -16 -12 -17 -18 -8 -27
7 -7 12 -20 12 -29 0 -34 19 -29 101 30 46 33 85 58 88 56 2 -3 33 16 69 41
48 35 74 47 103 48 22 0 39 4 39 9 0 4 27 -13 60 -38 33 -25 60 -52 60 -58 0
-9 3 -8 8 1 7 10 14 9 33 -6 74 -56 99 -74 99 -69 0 3 -29 27 -65 53 -36 26
-65 51 -65 56 0 4 -6 5 -13 2 -7 -2 -40 17 -73 44 -33 27 -65 47 -71 45 -6 -2
-14 0 -17 6 -7 11 -66 -6 -79 -23 -5 -6 -7 22 -5 62 3 64 2 72 -14 72 -16 0
-18 -10 -18 -77z"/>
<path d="M3670 2951 c0 -27 -2 -61 -5 -77 -5 -27 8 -64 19 -54 2 3 8 45 12 93
6 77 5 87 -10 87 -13 0 -16 -10 -16 -49z"/>
<path d="M3770 2891 c0 -67 4 -112 11 -116 6 -4 12 -5 14 -4 2 2 5 55 7 117 3
101 1 112 -14 112 -16 0 -18 -12 -18 -109z"/>
<path d="M3861 2853 c1 -111 4 -135 9 -98 12 75 12 245 0 245 -6 0 -10 -55 -9
-147z"/>
<path d="M3927 2970 c3 -19 1 -30 -6 -30 -7 0 -7 -7 1 -26 10 -20 9 -27 -2
-34 -12 -7 -11 -13 8 -33 23 -25 33 -72 10 -49 -18 18 -27 15 -21 -8 3 -11 8
-18 12 -15 9 5 41 -31 41 -45 0 -15 -11 -12 -32 7 -10 9 -18 13 -18 10 0 -8
116 -97 126 -97 4 0 -11 14 -34 31 -45 33 -52 52 -9 25 24 -16 25 -16 31 15 3
17 6 87 6 155 l0 124 -40 0 c-24 0 -40 -5 -40 -12 0 -9 -3 -9 -12 0 -20 20
-28 14 -21 -18z m33 -36 c0 -8 -4 -14 -10 -14 -5 0 -10 9 -10 21 0 11 5 17 10
14 6 -3 10 -13 10 -21z m0 -60 c0 -8 -4 -14 -10 -14 -5 0 -10 9 -10 21 0 11 5
17 10 14 6 -3 10 -13 10 -21z"/>
<path d="M4140 2784 c0 -168 3 -215 13 -212 9 4 13 55 17 195 3 130 9 195 17
205 16 18 7 28 -24 28 l-23 0 0 -216z"/>
<path d="M4380 2958 c82 -75 174 -148 179 -143 2 3 -4 12 -16 20 -26 18 -157
128 -178 149 -9 9 -19 16 -23 16 -4 -1 13 -19 38 -42z"/>
<path d="M4390 2997 c0 -2 15 -16 33 -33 l32 -29 -29 33 c-28 30 -36 37 -36
29z"/>
<path d="M2750 2975 c0 -2 10 -10 23 -16 20 -11 21 -11 8 4 -13 16 -31 23 -31
12z"/>
<path d="M1293 2898 c-60 -60 -73 -79 -74 -108 -2 -19 -7 -41 -12 -48 -6 -7
-7 -15 -4 -19 4 -3 1 -15 -5 -27 -8 -16 -4 -14 21 8 22 22 28 32 19 38 -9 5 6
27 52 73 36 36 58 63 49 60 -8 -3 -32 -26 -53 -50 -20 -25 -42 -45 -49 -45 -6
0 11 24 39 53 83 87 93 106 19 37 -72 -67 -57 -44 29 48 75 78 51 63 -31 -20z"/>
<path d="M1820 2879 c-52 -50 -81 -81 -65 -70 29 19 174 161 165 161 -3 0 -48
-41 -100 -91z"/>
<path d="M2800 2888 c133 -91 150 -101 150 -94 0 7 -205 145 -228 153 -9 3 26
-24 78 -59z"/>
<path d="M2822 2928 c35 -30 93 -64 84 -50 -3 6 -30 24 -59 42 -37 22 -44 24
-25 8z"/>
<path d="M4350 2946 c0 -2 7 -9 15 -16 13 -11 14 -10 9 4 -5 14 -24 23 -24 12z"/>
<path d="M2290 2938 c0 -6 92 -68 128 -87 42 -22 22 -3 -30 30 -29 17 -63 38
-75 47 -13 8 -23 12 -23 10z"/>
<path d="M3061 2924 c0 -11 3 -14 6 -6 3 7 2 16 -1 19 -3 4 -6 -2 -5 -13z"/>
<path d="M4460 2933 c0 -12 100 -92 100 -80 0 2 -22 23 -50 46 -27 23 -50 39
-50 34z"/>
<path d="M2290 2887 c0 -9 9 -22 19 -29 10 -6 17 -17 14 -24 -2 -6 0 -15 6
-19 7 -4 8 0 4 11 -5 14 -3 16 13 11 14 -6 13 -3 -5 12 -14 10 -31 27 -38 37
-12 16 -13 16 -13 1z"/>
<path d="M1829 2843 l-24 -26 27 19 c15 10 28 22 28 27 0 12 -5 8 -31 -20z"/>
<path d="M2490 2866 c0 -3 9 -10 20 -16 11 -6 20 -8 20 -6 0 3 -9 10 -20 16
-11 6 -20 8 -20 6z"/>
<path d="M2920 2866 c0 -2 8 -10 18 -17 15 -13 16 -12 3 4 -13 16 -21 21 -21
13z"/>
<path d="M4220 2835 c0 -22 2 -24 19 -13 15 9 17 15 9 25 -16 20 -28 15 -28
-12z"/>
<path d="M4466 2847 c2 -7 14 -19 27 -26 21 -13 21 -12 -2 13 -27 29 -33 32
-25 13z"/>
<path d="M2370 2826 c0 -3 9 -10 20 -16 11 -6 20 -8 20 -6 0 3 -9 10 -20 16
-11 6 -20 8 -20 6z"/>
<path d="M2570 2816 c0 -3 9 -10 20 -16 11 -6 20 -8 20 -6 0 3 -9 10 -20 16
-11 6 -20 8 -20 6z"/>
<path d="M2841 2807 c2 -1 13 -9 24 -17 19 -14 19 -14 6 3 -7 9 -18 17 -24 17
-6 0 -8 -1 -6 -3z"/>
<path d="M4534 2791 c20 -22 26 -25 26 -13 0 4 -10 13 -22 21 -23 14 -23 14
-4 -8z"/>
<path d="M2631 2777 c2 -1 13 -9 24 -17 19 -14 19 -14 6 3 -7 9 -18 17 -24 17
-6 0 -8 -1 -6 -3z"/>
<path d="M4529 2757 c26 -28 31 -32 31 -19 0 4 -13 16 -28 26 l-27 19 24 -26z"/>
<path d="M1786 2755 c-11 -8 -17 -17 -14 -20 2 -3 13 4 23 15 21 23 18 25 -9
5z"/>
<path d="M2910 2766 c0 -2 8 -10 18 -17 15 -13 16 -12 3 4 -13 16 -21 21 -21
13z"/>
<path d="M1241 2700 c-42 -36 -52 -52 -55 -81 -2 -20 -6 -41 -10 -48 -21 -34
6 -12 69 55 81 86 85 100 5 19 -29 -30 -56 -52 -59 -49 -3 2 28 38 69 79 54
55 68 74 53 72 -11 0 -44 -22 -72 -47z m59 37 c0 -1 -24 -25 -52 -52 l-53 -50
50 53 c46 48 55 57 55 49z"/>
<path d="M4450 2746 c0 -2 7 -9 15 -16 9 -7 15 -8 15 -2 0 5 -7 12 -15 16 -8
3 -15 4 -15 2z"/>
<path d="M4524 2723 c16 -18 32 -31 34 -28 3 3 3 6 1 8 -2 1 -17 13 -34 27
l-30 25 29 -32z"/>
<path d="M2703 2732 c4 -5 24 -20 44 -32 20 -12 32 -16 26 -8 -15 17 -78 54
-70 40z"/>
<path d="M1649 2713 c-13 -16 -12 -17 4 -4 16 13 21 21 13 21 -2 0 -10 -8 -17
-17z"/>
<path d="M4519 2687 c36 -39 41 -42 41 -29 0 4 -17 20 -38 36 l-37 29 34 -36z"/>
<path d="M3910 2679 l0 -31 -26 17 -27 17 28 -35 29 -35 18 23 c23 30 23 52
-2 65 -18 10 -20 8 -20 -21z"/>
<path d="M1700 2675 c-8 -9 -8 -15 -2 -15 12 0 26 19 19 26 -2 2 -10 -2 -17
-11z"/>
<path d="M3339 2673 c-13 -16 -12 -17 4 -4 16 13 21 21 13 21 -2 0 -10 -8 -17
-17z"/>
<path d="M2790 2677 c0 -7 132 -88 137 -84 2 3 -18 17 -44 32 -26 16 -58 35
-70 43 -13 8 -23 12 -23 9z"/>
<path d="M2750 2646 c0 -3 9 -10 20 -16 11 -6 20 -8 20 -6 0 3 -9 10 -20 16
-11 6 -20 8 -20 6z"/>
<path d="M3252 2616 c-41 -29 -48 -36 -36 -36 5 0 25 14 44 30 42 35 38 38 -8
6z"/>
<path d="M3772 2594 c10 -10 20 -16 22 -13 3 3 -5 11 -17 18 -21 13 -21 12 -5
-5z"/>
<path d="M1195 2550 c-21 -22 -36 -42 -34 -45 3 -2 22 16 43 40 46 56 42 58
-9 5z"/>
<path d="M1211 2528 c-34 -34 -58 -64 -52 -66 7 -2 5 -13 -6 -30 -9 -15 18 7
60 48 42 41 77 79 77 83 0 5 -7 4 -15 -3 -18 -15 -20 1 -3 18 7 7 10 12 8 12
-3 0 -34 -28 -69 -62z m9 -23 c-24 -24 -46 -43 -48 -40 -6 6 70 85 82 85 5 0
-10 -20 -34 -45z"/>
<path d="M2750 2586 c0 -2 7 -7 16 -10 8 -3 12 -2 9 4 -6 10 -25 14 -25 6z"/>
<path d="M4450 2586 c0 -2 7 -9 15 -16 9 -7 15 -8 15 -2 0 5 -7 12 -15 16 -8
3 -15 4 -15 2z"/>
<path d="M2600 2566 c0 -3 9 -10 20 -16 11 -6 20 -8 20 -6 0 3 -9 10 -20 16
-11 6 -20 8 -20 6z"/>
<path d="M3422 2515 c-73 -50 -81 -58 -72 -75 6 -11 13 -20 16 -20 3 0 38 23
79 50 62 42 74 55 73 75 -1 14 -5 25 -8 25 -3 0 -42 -25 -88 -55z m10 -17 c-6
-7 -25 -22 -44 -32 -39 -23 -32 -13 14 20 38 26 45 29 30 12z"/>
<path d="M3610 2542 c-50 -34 -54 -41 -35 -62 27 -30 11 -35 -29 -11 l-35 22
-70 -47 c-39 -26 -71 -50 -71 -54 0 -4 9 -15 21 -26 15 -13 20 -28 17 -51 -4
-32 -3 -33 33 -33 21 0 41 -5 45 -11 3 -6 15 -9 25 -6 11 3 30 -7 51 -27 l32
-32 23 26 c16 19 25 22 33 14 9 -9 23 -5 57 14 69 38 174 62 282 63 95 1 95 1
41 11 -67 12 -205 3 -280 -17 -30 -8 -56 -12 -58 -10 -10 10 68 46 130 60 139
31 291 17 414 -40 77 -35 85 -81 9 -49 -20 8 -39 13 -42 10 -2 -2 5 -7 17 -11
12 -4 36 -20 55 -36 28 -25 34 -27 39 -13 6 15 8 15 26 -1 11 -10 22 -26 26
-37 5 -18 6 -18 25 3 10 12 19 26 19 32 0 5 8 6 17 3 15 -6 15 -5 -1 13 -14
15 -16 27 -9 60 l8 41 265 -201 c308 -234 353 -269 346 -276 -3 -3 -133 92
-290 211 -157 119 -293 216 -303 216 -14 0 -12 -4 9 -18 77 -51 554 -416 562
-431 5 -9 31 -31 58 -49 46 -31 511 -374 1398 -1031 217 -161 404 -302 415
-314 11 -11 -2 -5 -30 15 -48 33 -1322 972 -1660 1223 -88 65 -169 120 -180
123 -29 7 -17 -3 130 -108 127 -91 290 -210 740 -541 252 -186 416 -306 740
-543 243 -178 286 -213 283 -230 -1 -6 4 -29 10 -50 6 -22 9 -42 7 -45 -3 -2
0 -10 6 -18 6 -7 7 -13 2 -13 -5 0 -7 -16 -5 -35 3 -21 0 -35 -7 -35 -6 0 -8
6 -5 14 3 7 -6 20 -20 30 -15 9 -37 23 -51 32 l-26 17 5 -64 c2 -35 7 -71 10
-79 3 -8 6 -26 8 -39 2 -14 9 -27 17 -29 11 -4 13 4 8 37 -3 22 -2 43 3 46 10
6 20 -30 20 -71 0 -30 24 -63 36 -51 3 3 1 33 -4 67 -9 65 -1 85 20 48 13 -24
14 -29 16 -66 4 -48 17 -11 16 41 l-1 55 76 23 c42 12 84 23 93 24 27 2 31 12
8 18 -11 3 -20 2 -20 -2 0 -4 -34 -15 -76 -26 -86 -21 -96 -16 -90 44 2 21 -2
40 -10 49 -15 14 -17 42 -6 79 7 20 13 17 106 -53 103 -77 111 -81 121 -64 3
6 15 10 26 10 10 0 19 3 19 8 0 16 -247 192 -271 192 -16 0 -204 136 -579 421
-1383 1048 -1285 972 -1260 981 14 5 20 12 14 17 -10 10 -403 313 -580 449
-83 63 -126 90 -138 86 -23 -9 -20 13 5 26 21 12 21 37 -1 32 -11 -3 -11 0 0
13 12 15 11 15 -13 4 -15 -7 -24 -17 -20 -22 4 -6 0 -8 -10 -4 -25 9 -29 -8
-7 -28 29 -26 24 -40 -6 -20 -15 9 -35 14 -47 11 -12 -3 -58 6 -102 21 -107
35 -311 44 -425 18 -41 -10 -99 -18 -128 -19 l-52 -2 20 20 c17 18 23 19 40 8
16 -10 26 -10 48 1 37 19 104 35 185 43 37 4 70 11 74 16 8 15 -149 0 -236
-22 -57 -14 -76 -16 -86 -7 -6 7 -10 18 -7 25 5 15 3 15 -28 -6z m525 -136
c59 -16 130 -45 124 -50 -2 -3 -42 7 -89 21 -72 22 -105 26 -219 27 -74 1
-122 4 -105 7 55 12 238 9 289 -5z m-328 -12 c-3 -3 -12 -4 -19 -1 -8 3 -5 6
6 6 11 1 17 -2 13 -5z m-252 -88 c41 -33 25 -44 -19 -14 -20 14 -33 28 -29 31
10 11 16 9 48 -17z m105 -17 c0 -6 -4 -7 -10 -4 -5 3 -10 11 -10 16 0 6 5 7
10 4 6 -3 10 -11 10 -16z m700 -36 c0 -7 -4 -13 -9 -13 -14 0 -41 42 -35 52 8
12 44 -21 44 -39z m2706 -1900 c57 -42 102 -79 100 -81 -3 -2 -53 33 -112 77
-59 45 -104 81 -99 81 4 0 54 -35 111 -77z m-193 -145 c4 -31 2 -47 -7 -37 -8
10 -15 69 -7 69 5 0 11 -15 14 -32z"/>
<path d="M4505 2540 c10 -11 20 -20 23 -20 3 0 -3 9 -13 20 -10 11 -20 20 -23
20 -3 0 3 -9 13 -20z"/>
<path d="M2745 2535 c11 -9 29 -21 40 -26 l20 -10 -20 16 c-11 9 -29 21 -40
26 l-20 10 20 -16z"/>
<path d="M2820 2546 c0 -3 9 -10 20 -16 11 -6 20 -8 20 -6 0 3 -9 10 -20 16
-11 6 -20 8 -20 6z"/>
<path d="M2451 2537 c2 -1 13 -9 24 -17 19 -14 19 -14 6 3 -7 9 -18 17 -24 17
-6 0 -8 -1 -6 -3z"/>
<path d="M4291 2512 c-30 -27 -30 -28 -10 -40 28 -18 49 0 46 39 -1 16 -3 29
-4 29 -1 0 -15 -12 -32 -28z"/>
<path d="M1205 2450 c-38 -38 -67 -72 -64 -74 3 -3 36 26 74 64 38 38 67 72
64 74 -3 3 -36 -26 -74 -64z"/>
<path d="M2170 2516 c0 -3 14 -12 30 -21 17 -9 30 -13 30 -11 0 3 -13 12 -30
21 -16 9 -30 13 -30 11z"/>
<path d="M1220 2425 c-24 -25 -40 -45 -34 -45 13 0 89 78 83 85 -3 2 -25 -16
-49 -40z"/>
<path d="M2260 2466 c0 -3 9 -10 20 -16 11 -6 20 -8 20 -6 0 3 -9 10 -20 16
-11 6 -20 8 -20 6z"/>
<path d="M2330 2426 c0 -3 9 -10 20 -16 11 -6 20 -8 20 -6 0 3 -9 10 -20 16
-11 6 -20 8 -20 6z"/>
<path d="M2120 2416 c0 -3 9 -10 20 -16 11 -6 20 -8 20 -6 0 3 -9 10 -20 16
-11 6 -20 8 -20 6z"/>
<path d="M2400 2386 c0 -3 9 -10 20 -16 11 -6 20 -8 20 -6 0 3 -9 10 -20 16
-11 6 -20 8 -20 6z"/>
<path d="M5000 2334 c-41 -24 -87 -55 -103 -69 -15 -14 -31 -25 -35 -25 -4 0
-13 -4 -21 -9 -11 -7 -6 -15 20 -40 19 -17 39 -31 44 -31 6 0 47 19 92 42 59
31 83 49 86 65 6 30 -1 29 -75 -11 -81 -44 -108 -52 -108 -33 0 8 23 25 52 37
72 31 128 70 128 89 0 12 7 8 25 -12 14 -15 29 -27 32 -27 4 0 -8 16 -27 35
-19 19 -34 35 -34 34 -1 -1 -35 -21 -76 -45z"/>
<path d="M3322 2345 c0 -16 2 -22 5 -12 2 9 2 23 0 30 -3 6 -5 -1 -5 -18z"/>
<path d="M2470 2346 c0 -3 9 -10 20 -16 11 -6 20 -8 20 -6 0 3 -9 10 -20 16
-11 6 -20 8 -20 6z"/>
<path d="M3291 2334 c0 -11 3 -14 6 -6 3 7 2 16 -1 19 -3 4 -6 -2 -5 -13z"/>
<path d="M2520 2316 c0 -5 90 -56 97 -56 2 0 -2 6 -9 13 -14 13 -88 49 -88 43z"/>
<path d="M3256 2305 c4 -8 8 -15 10 -15 2 0 4 7 4 15 0 8 -4 15 -10 15 -5 0
-7 -7 -4 -15z"/>
<path d="M4135 2305 c27 -8 51 -12 53 -10 5 5 -69 25 -88 24 -8 0 7 -7 35 -14z"/>
<path d="M3330 2300 c-8 -5 -12 -12 -9 -15 4 -3 12 1 19 10 14 17 11 19 -10 5z"/>
<path d="M3209 2283 c-13 -16 -12 -17 3 -5 13 10 17 10 21 0 4 -8 6 -7 6 5 1
9 -3 17 -8 17 -5 0 -15 -8 -22 -17z"/>
<path d="M3286 2277 c3 -10 9 -15 12 -12 3 3 0 11 -7 18 -10 9 -11 8 -5 -6z"/>
<path d="M5172 2278 c2 -6 15 -18 29 -27 l24 -15 -24 27 c-26 29 -35 34 -29
15z"/>
<path d="M1209 2253 l-24 -28 28 24 c25 23 32 31 24 31 -2 0 -14 -12 -28 -27z"/>
<path d="M3324 2264 c-18 -14 -18 -15 4 -4 12 6 22 13 22 15 0 8 -5 6 -26 -11z"/>
<path d="M3182 2250 c0 -14 2 -19 5 -12 2 6 2 18 0 25 -3 6 -5 1 -5 -13z"/>
<path d="M3222 2246 c7 -8 15 -12 17 -11 5 6 -10 25 -20 25 -5 0 -4 -6 3 -14z"/>
<path d="M5125 2241 c11 -13 29 -28 40 -33 20 -11 20 -11 0 11 -11 13 -29 28
-40 33 -20 11 -20 11 0 -11z"/>
<path d="M3151 2238 c-1 -12 -8 -17 -22 -15 -12 1 -23 -4 -25 -11 -1 -7 0 -8
3 -2 2 5 9 10 14 10 13 0 11 -41 -3 -60 -7 -9 -3 -5 10 8 13 13 26 22 29 18 8
-8 33 13 33 28 0 6 -6 2 -13 -9 -11 -19 -12 -17 -18 15 -4 19 -7 27 -8 18z"/>
<path d="M3245 2219 c-64 -48 -65 -55 -2 -14 31 21 57 39 57 41 0 9 -18 0 -55
-27z"/>
<path d="M3326 2237 c-11 -7 -25 -16 -30 -20 -33 -24 -122 -77 -131 -77 -5 0
-3 -5 5 -11 12 -9 12 -10 -3 -5 -10 3 -21 6 -24 6 -3 0 0 7 8 16 8 10 0 8 -24
-6 -20 -12 -40 -27 -44 -33 -3 -6 4 -3 18 6 33 24 42 21 24 -7 -16 -23 -15
-24 4 -19 12 3 21 10 21 15 0 5 4 7 9 4 5 -3 14 1 21 9 14 17 35 20 24 4 -4
-8 0 -8 15 0 24 13 28 23 6 15 -8 -4 -15 -3 -15 0 0 4 14 12 31 18 21 7 28 15
24 25 -3 10 -1 13 9 10 7 -3 23 3 34 13 11 10 22 17 25 14 2 -3 7 4 10 16 3
11 4 20 4 19 -1 0 -11 -6 -21 -12z"/>
<path d="M5251 2215 c20 -24 33 -75 20 -75 -5 0 -13 4 -16 10 -3 5 -16 15 -28
20 -16 8 -13 3 9 -17 30 -28 61 -93 44 -93 -5 0 -12 4 -15 10 -3 5 -16 15 -28
21 -16 7 -13 2 9 -19 18 -17 35 -44 39 -62 7 -31 6 -31 -17 -19 -22 11 -22 11
-7 -7 9 -10 21 -34 27 -52 l11 -33 -37 21 -37 22 33 -29 c17 -16 32 -37 32
-46 0 -9 5 -19 11 -23 12 -7 7 160 -7 280 -5 42 -4 48 10 43 26 -10 19 -1 -26
34 -24 18 -36 24 -27 14z"/>
<path d="M4450 2216 c0 -2 8 -10 18 -17 15 -13 16 -12 3 4 -13 16 -21 21 -21
13z"/>
<path d="M3785 2195 c-33 -7 -77 -20 -97 -29 -20 -9 -44 -13 -52 -10 -21 8
-77 -33 -69 -51 4 -13 10 -12 38 5 21 13 36 17 40 10 4 -6 21 -2 46 11 59 29
182 60 274 69 l80 7 -100 1 c-55 0 -127 -6 -160 -13z"/>
<path d="M5005 2173 c-33 -20 -62 -38 -64 -40 -3 -2 1 -9 7 -15 18 -18 142 45
142 72 0 28 -17 25 -85 -17z"/>
<path d="M3063 2192 c-15 -11 -23 -41 -13 -47 6 -4 10 -1 10 5 0 6 5 8 10 5 6
-3 10 2 10 12 0 15 2 16 10 3 8 -13 10 -13 10 1 0 19 -22 31 -37 21z"/>
<path d="M4078 2193 c7 -3 16 -2 19 1 4 3 -2 6 -13 5 -11 0 -14 -3 -6 -6z"/>
<path d="M4490 2186 c0 -2 8 -10 18 -17 15 -13 16 -12 3 4 -13 16 -21 21 -21
13z"/>
<path d="M5140 2156 c24 -26 60 -52 60 -42 0 2 -19 19 -42 37 -40 30 -41 31
-18 5z"/>
<path d="M2993 2145 c-13 -9 -23 -26 -23 -37 0 -12 3 -18 7 -14 4 4 8 15 8 23
0 9 6 18 13 20 20 7 14 -44 -6 -59 -11 -7 -19 -21 -19 -30 0 -16 2 -16 28 -1
16 9 26 19 24 21 -3 3 -11 -1 -20 -8 -9 -7 -18 -11 -21 -8 -5 6 69 64 90 71 6
2 8 7 5 11 -3 3 -18 -3 -32 -14 l-26 -20 -3 30 c-3 30 -4 30 -25 15z"/>
<path d="M4530 2156 c0 -2 8 -10 18 -17 15 -13 16 -12 3 4 -13 16 -21 21 -21
13z"/>
<path d="M3800 2135 c-36 -7 -83 -20 -105 -29 -21 -9 -45 -14 -53 -11 -14 5
-72 -24 -72 -35 0 -17 14 -18 37 -3 16 11 27 13 34 6 7 -7 24 -3 52 12 58 32
137 53 237 64 l85 8 -75 1 c-41 0 -104 -6 -140 -13z"/>
<path d="M4305 2140 c-4 -6 -14 -9 -22 -6 -14 6 -11 -5 10 -32 8 -10 13 -8 25
9 9 14 11 24 4 31 -6 6 -12 6 -17 -2z"/>
<path d="M4384 2119 c-3 -6 -15 -9 -25 -6 -15 4 -17 2 -9 -13 6 -11 15 -22 21
-25 12 -8 49 23 49 42 0 16 -26 18 -36 2z"/>
<path d="M4570 2126 c0 -2 8 -10 18 -17 15 -13 16 -12 3 4 -13 16 -21 21 -21
13z"/>
<path d="M5031 2109 c-31 -19 -33 -22 -18 -37 15 -14 20 -14 43 -1 15 8 29 22
32 32 4 15 13 10 61 -29 l56 -46 -52 51 c-28 28 -60 51 -70 51 -10 0 -33 -9
-52 -21z"/>
<path d="M5362 2106 c11 -25 36 -41 46 -31 6 6 -38 55 -50 55 -4 0 -3 -11 4
-24z"/>
<path d="M2936 2104 c-3 -9 -6 -24 -6 -35 0 -10 -4 -19 -10 -19 -5 0 -10 10
-10 23 0 18 -2 19 -10 7 -5 -8 -9 -28 -9 -45 0 -26 2 -27 9 -10 5 11 9 16 9
11 1 -5 7 -3 14 3 8 6 17 8 20 4 4 -3 7 12 7 35 0 45 -4 52 -14 26z"/>
<path d="M881 2086 c-14 -16 -46 -131 -55 -197 -5 -33 -15 -54 -36 -74 -17
-16 -30 -33 -30 -39 0 -5 10 0 23 12 30 28 36 28 30 0 -5 -19 -3 -21 8 -10 8
7 19 41 26 75 7 34 21 102 33 151 21 91 21 107 1 82z"/>
<path d="M3843 2093 c9 -2 23 -2 30 0 6 3 -1 5 -18 5 -16 0 -22 -2 -12 -5z"/>
<path d="M3077 2076 c-9 -7 -17 -19 -17 -27 0 -9 8 -6 22 9 25 24 22 37 -5 18z"/>
<path d="M3716 2065 c-38 -13 -73 -22 -77 -19 -12 7 -59 -18 -59 -33 0 -16
-14 -17 -43 -2 -16 7 -14 4 6 -11 22 -18 27 -30 27 -66 0 -48 5 -51 35 -28 14
10 19 24 17 44 -4 32 6 38 26 18 8 -8 12 -8 12 -1 0 6 -7 16 -15 23 -12 10
-21 10 -42 1 l-27 -12 29 28 c17 16 34 25 39 21 5 -4 23 0 40 9 17 9 56 24 86
34 30 9 46 17 35 18 -11 0 -51 -10 -89 -24z m-115 -128 c-13 -13 -26 -3 -16
12 3 6 11 8 17 5 6 -4 6 -10 -1 -17z"/>
<path d="M3900 1921 l0 -159 71 -4 c44 -2 73 1 76 7 2 6 2 78 1 160 l-3 150
-72 3 -73 3 0 -160z"/>
<path d="M4290 2070 c-12 -7 -12 -12 -3 -21 9 -9 16 -9 27 1 26 21 5 39 -24
20z"/>
<path d="M3110 2059 c0 -5 5 -7 10 -4 6 3 10 8 10 11 0 2 -4 4 -10 4 -5 0 -10
-5 -10 -11z"/>
<path d="M3795 2063 c-11 -2 -33 -8 -50 -14 l-30 -9 3 -152 c2 -84 4 -154 5
-154 1 -1 28 2 60 8 l57 10 0 106 c0 59 3 131 6 160 7 56 5 58 -51 45z"/>
<path d="M4387 2059 c-10 -6 -25 -8 -34 -5 -13 5 -14 4 -3 -9 16 -19 24 -85
11 -85 -23 0 -60 24 -53 34 11 19 11 37 -1 33 -15 -4 -22 -87 -8 -87 5 0 11 5
13 11 3 9 10 9 26 0 27 -14 31 -46 5 -37 -15 5 -15 4 1 -9 11 -8 16 -15 12
-15 -5 0 -3 -7 4 -15 10 -12 15 -12 35 1 19 13 23 22 18 45 -5 29 10 42 20 17
4 -10 6 -10 6 -1 1 6 -8 18 -19 26 -11 8 -17 17 -13 21 4 3 8 13 9 22 2 11 -4
13 -19 9 -22 -6 -22 -5 1 11 12 9 22 23 22 30 0 17 -8 17 -33 3z"/>
<path d="M4650 2066 c0 -2 8 -10 18 -17 15 -13 16 -12 3 4 -13 16 -21 21 -21
13z"/>
<path d="M2796 2041 c-15 -10 -33 -29 -39 -42 -17 -33 -7 -91 16 -95 14 -2 16
1 8 10 -25 30 -6 116 25 116 13 0 29 18 22 25 -2 2 -16 -4 -32 -14z"/>
<path d="M4102 2038 c2 -18 15 -27 53 -39 l50 -16 5 -139 c3 -76 8 -134 12
-129 3 6 8 78 9 160 l3 150 -45 17 c-65 25 -91 23 -87 -4z"/>
<path d="M3014 2040 c-6 -6 -26 -19 -45 -29 -19 -10 -34 -23 -34 -29 0 -6 -4
-14 -9 -19 -5 -5 -6 -3 -2 5 4 7 2 12 -5 12 -8 0 -7 5 2 17 13 15 12 15 -8 2
-15 -9 -19 -16 -10 -21 8 -5 6 -9 -6 -14 -21 -8 -22 -30 -1 -38 10 -4 13 -2 8
6 -5 8 -2 9 10 5 10 -4 15 -3 11 3 -6 10 52 57 66 53 5 -2 9 1 9 6 0 5 9 13
20 16 11 3 20 13 20 21 0 17 -12 18 -26 4z"/>
<path d="M5066 2041 c-3 -5 1 -14 9 -21 8 -7 15 -11 16 -9 6 32 5 39 -6 39 -8
0 -16 -4 -19 -9z"/>
<path d="M5360 2037 c0 -7 14 -23 30 -35 37 -28 42 -7 7 26 -27 25 -37 28 -37
9z"/>
<path d="M5476 2033 c-3 -4 -6 -14 -6 -24 0 -12 7 -16 25 -15 14 0 25 3 25 6
0 10 -38 38 -44 33z"/>
<path d="M1169 2018 c-8 -7 -21 -22 -29 -33 -8 -11 0 -7 18 9 18 17 32 31 32
33 0 6 -6 3 -21 -9z"/>
<path d="M5132 2009 c4 -13 68 -56 68 -46 0 2 -16 17 -36 32 -20 16 -35 22
-32 14z"/>
<path d="M2817 1984 c-4 -4 -7 -19 -7 -33 l0 -25 16 23 c15 21 7 51 -9 35z"/>
<path d="M5370 1956 c0 -19 44 -50 48 -36 4 12 -26 50 -40 50 -4 0 -8 -6 -8
-14z"/>
<path d="M2260 1956 c0 -3 9 -10 20 -16 11 -6 20 -8 20 -6 0 3 -9 10 -20 16
-11 6 -20 8 -20 6z"/>
<path d="M5485 1888 c3 -35 7 -100 10 -145 4 -71 3 -82 -10 -77 -11 5 -13 2
-9 -10 3 -9 10 -14 14 -11 4 3 11 -2 14 -11 4 -9 9 -14 13 -11 3 4 12 2 20 -4
9 -9 13 -8 13 0 0 6 -7 14 -15 17 -9 4 -15 19 -15 36 0 17 4 27 10 23 16 -10
12 11 -5 25 -8 7 -15 24 -15 37 0 22 2 24 15 13 8 -7 15 -8 15 -2 0 5 -7 15
-15 22 -17 14 -21 65 -5 55 16 -10 12 11 -5 25 -8 7 -15 24 -15 38 0 24 1 25
20 7 11 -10 20 -14 20 -8 0 13 -33 43 -48 43 -7 0 -9 -21 -7 -62z"/>
<path d="M2440 1925 c0 -3 36 -23 80 -45 44 -22 80 -38 80 -35 0 3 -36 23 -80
45 -44 22 -80 38 -80 35z"/>
<path d="M4290 1909 c0 -24 23 -21 28 4 2 10 -3 17 -12 17 -10 0 -16 -9 -16
-21z"/>
<path d="M4479 1912 c14 -11 38 -27 55 -37 l31 -17 -24 20 c-14 11 -38 27 -55
37 l-31 17 24 -20z"/>
<path d="M5140 1926 c0 -3 15 -15 33 -27 23 -17 28 -18 18 -6 -14 18 -51 42
-51 33z"/>
<path d="M2241 1896 c2 -2 15 -9 29 -15 24 -11 24 -11 6 3 -16 13 -49 24 -35
12z"/>
<path d="M4465 1889 c19 -33 40 -49 63 -49 24 0 23 1 -9 23 -58 39 -63 42 -54
26z"/>
<path d="M5370 1884 c1 -20 47 -60 58 -50 9 9 -9 36 -36 54 -20 13 -22 13 -22
-4z"/>
<path d="M1139 1863 c-13 -16 -12 -17 4 -4 9 7 17 15 17 17 0 8 -8 3 -21 -13z"/>
<path d="M4570 1848 c0 -4 4 -8 10 -8 5 0 10 -24 10 -52 0 -116 12 -264 21
-273 7 -7 10 23 7 93 -1 56 1 102 5 102 5 0 28 -14 52 -31 40 -29 43 -34 49
-91 3 -34 6 -80 6 -104 0 -67 20 -64 22 3 l1 58 6 -65 c6 -59 8 -65 39 -83
l32 -19 2 139 c0 80 3 119 7 93 8 -59 26 -49 27 15 l0 50 -128 89 c-116 81
-168 107 -168 84z"/>
<path d="M5614 1841 c20 -22 26 -25 26 -13 0 4 -10 13 -22 21 -23 14 -23 14
-4 -8z"/>
<path d="M2080 1846 c0 -3 9 -10 20 -16 11 -6 20 -8 20 -6 0 3 -9 10 -20 16
-11 6 -20 8 -20 6z"/>
<path d="M5363 1822 c10 -10 17 -23 17 -28 0 -5 12 -17 25 -27 24 -17 25 -17
25 0 0 10 -16 30 -34 46 -40 31 -57 36 -33 9z"/>
<path d="M2630 1800 c-11 -7 -12 -12 -3 -21 13 -13 57 6 48 22 -8 12 -26 11
-45 -1z"/>
<path d="M5290 1800 c0 -11 37 -33 64 -37 23 -4 22 -3 -26 25 -21 12 -38 17
-38 12z"/>
<path d="M5582 1794 c10 -10 20 -15 24 -12 3 4 -5 12 -18 18 -22 12 -22 12 -6
-6z"/>
<path d="M2851 1760 c14 -31 19 -36 19 -24 0 6 -7 19 -16 30 -14 18 -14 18 -3
-6z"/>
<path d="M5620 1765 c0 -2 10 -10 23 -16 20 -11 21 -11 8 4 -13 16 -31 23 -31
12z"/>
<path d="M747 1737 c-4 -10 -7 -28 -6 -40 0 -21 1 -21 10 2 5 14 8 32 7 40 -3
13 -5 13 -11 -2z"/>
<path d="M5390 1736 c0 -2 8 -10 18 -17 15 -13 16 -12 3 4 -13 16 -21 21 -21
13z"/>
<path d="M3788 1723 c7 -3 16 -2 19 1 4 3 -2 6 -13 5 -11 0 -14 -3 -6 -6z"/>
<path d="M5592 1718 c2 -6 15 -18 29 -27 l24 -15 -24 27 c-26 29 -35 34 -29
15z"/>
<path d="M3748 1713 c7 -3 16 -2 19 1 4 3 -2 6 -13 5 -11 0 -14 -3 -6 -6z"/>
<path d="M3918 1713 c12 -2 32 -2 45 0 12 2 2 4 -23 4 -25 0 -35 -2 -22 -4z"/>
<path d="M3808 1703 c6 -2 18 -2 25 0 6 3 1 5 -13 5 -14 0 -19 -2 -12 -5z"/>
<path d="M3725 1685 c-39 -18 -31 -18 25 -1 25 8 36 15 25 15 -11 0 -33 -6
-50 -14z"/>
<path d="M726 1617 c-4 -27 -9 -56 -11 -65 -21 -96 -58 -272 -70 -332 -8 -41
-26 -131 -41 -200 -14 -69 -30 -150 -35 -181 -4 -31 -13 -68 -19 -83 -14 -38
-13 -54 3 -31 25 36 70 239 82 365 2 25 16 97 30 160 14 63 30 133 35 155 5
22 14 63 21 90 6 28 12 59 13 70 0 11 4 25 8 31 4 6 4 24 -1 40 -7 28 -8 27
-15 -19z"/>
<path d="M5655 1600 c3 -5 8 -10 11 -10 2 0 4 5 4 10 0 6 -5 10 -11 10 -5 0
-7 -4 -4 -10z"/>
<path d="M3258 1580 c-54 -29 -57 -44 -4 -18 25 12 46 26 46 30 0 10 2 11 -42
-12z"/>
<path d="M4944 1591 c7 -11 46 -35 46 -28 0 3 -12 12 -26 22 -15 9 -23 12 -20
6z"/>
<path d="M2070 1570 c19 -11 40 -19 45 -19 6 0 -6 8 -25 19 -19 11 -39 19 -45
19 -5 0 6 -8 25 -19z"/>
<path d="M4920 1565 c13 -14 32 -25 43 -25 15 0 11 6 -17 25 -20 14 -40 25
-43 25 -4 0 4 -11 17 -25z"/>
<path d="M2405 1449 c-115 -71 -301 -184 -412 -252 -112 -67 -203 -125 -203
-129 0 -16 24 -7 98 39 42 25 226 136 407 246 283 170 367 229 328 227 -4 -1
-102 -59 -218 -131z"/>
<path d="M5610 1566 c0 -2 8 -10 18 -17 15 -13 16 -12 3 4 -13 16 -21 21 -21
13z"/>
<path d="M4430 1530 c0 -27 9 -36 71 -76 73 -48 94 -48 87 -4 -2 14 -18 30
-43 44 -22 11 -42 24 -43 29 -2 4 -8 5 -13 1 -5 -3 -9 0 -9 5 0 6 -7 11 -15
11 -8 0 -15 5 -15 10 0 6 -4 10 -10 10 -5 0 -10 -14 -10 -30z"/>
<path d="M3128 1506 c-21 -11 -38 -25 -38 -29 0 -8 63 25 85 45 17 15 -9 7
-47 -16z"/>
<path d="M3890 1365 l0 -165 75 0 75 0 0 155 c0 85 1 158 3 163 1 4 -33 8 -75
10 l-78 3 0 -166z"/>
<path d="M3735 1506 c-26 -8 -39 -17 -36 -27 2 -8 3 -81 2 -162 -1 -101 2
-147 9 -142 5 3 10 14 11 23 0 11 3 12 6 5 2 -7 20 -13 38 -13 67 0 65 -4 65
171 l0 159 -27 -1 c-16 0 -46 -6 -68 -13z m-8 -268 c-2 -13 -4 -5 -4 17 -1 22
1 32 4 23 2 -10 2 -28 0 -40z"/>
<path d="M4100 1496 c0 -19 9 -25 53 -37 l52 -14 5 -145 c6 -172 18 -143 22
53 l3 127 -45 14 c-84 26 -90 26 -90 2z"/>
<path d="M5017 1503 c-4 -3 -4 -65 -1 -137 5 -114 9 -133 26 -148 38 -33 41
-24 33 113 l-7 131 21 -11 c15 -8 21 -21 21 -45 0 -18 6 -46 14 -62 8 -16 17
-66 21 -112 6 -68 11 -85 28 -97 12 -8 24 -15 28 -15 4 0 5 54 2 121 -5 92 -3
123 7 129 8 5 -16 27 -76 67 -112 75 -110 74 -117 66z"/>
<path d="M2981 1497 c-1 -4 24 -58 55 -120 l57 -112 -6 -137 c-5 -144 -3 -153
36 -123 13 9 20 32 24 76 l6 63 27 -54 c24 -50 25 -56 11 -69 -14 -12 -14 -12
5 -7 15 5 24 0 32 -16 11 -22 11 -22 6 4 -5 20 -1 28 15 33 12 3 21 11 21 16
0 6 -7 6 -19 -1 -28 -14 -36 -12 -21 5 7 8 19 15 26 15 10 0 14 13 15 43 0 23
4 94 9 157 4 63 7 116 5 118 -1 2 -19 -5 -39 -14 l-36 -18 -1 -110 c-1 -163
-6 -180 -37 -119 -17 33 -20 52 -15 122 l6 82 -36 -21 -36 -21 -55 108 c-30
59 -55 105 -55 100z"/>
<path d="M2595 1470 c-16 -11 -180 -109 -362 -217 -183 -108 -331 -198 -329
-201 3 -2 15 3 28 12 12 9 27 16 32 16 9 0 2 -159 -10 -220 -7 -30 0 -36 24
-22 13 9 49 249 38 259 -3 3 -12 0 -21 -7 -9 -7 -17 -11 -20 -8 -5 5 319 198
331 198 5 -1 -3 -8 -18 -16 -26 -13 -28 -20 -29 -77 0 -34 -3 -92 -8 -129 -5
-52 -4 -68 5 -68 21 0 26 19 26 92 -1 48 5 86 19 121 11 28 18 59 16 69 -4 13
19 31 97 78 95 55 157 84 94 42 -27 -18 -28 -21 -33 -141 -3 -68 -7 -127 -11
-132 -3 -5 3 -9 13 -9 13 -1 11 -5 -9 -16 -40 -21 -34 -27 7 -7 21 10 31 20
24 24 -18 11 -1 166 23 217 11 24 18 54 15 68 -4 21 3 28 44 51 27 14 49 30
49 35 0 11 -1 11 -35 -12z"/>
<path d="M2594 1442 c-18 -14 -23 -32 -28 -107 -17 -232 -18 -220 20 -189 18
14 18 15 -6 8 l-25 -7 22 19 c19 16 24 36 33 129 6 61 13 122 16 138 7 31 -2
34 -32 9z"/>
<path d="M5410 1422 c0 -33 14 -55 38 -59 7 -2 12 9 12 30 -1 30 -1 31 -15 13
-15 -20 -15 -20 -15 0 0 10 -5 26 -10 34 -7 11 -10 7 -10 -18z"/>
<path d="M2895 1375 c-22 -13 -35 -24 -30 -25 12 0 75 37 75 45 0 8 -2 7 -45
-20z"/>
<path d="M5480 1366 c0 -19 7 -39 17 -47 14 -12 16 -12 8 1 -12 19 -14 50 -3
50 14 0 9 18 -7 24 -11 4 -15 -2 -15 -28z"/>
<path d="M5531 1333 c-1 -23 3 -44 7 -47 4 -2 6 12 4 32 -5 56 -10 62 -11 15z"/>
<path d="M2785 1315 c-22 -13 -37 -25 -33 -25 14 0 78 34 78 42 0 11 0 11 -45
-17z"/>
<path d="M2375 1314 c-16 -12 -20 -27 -21 -82 -1 -37 -4 -96 -9 -131 -6 -51
-5 -63 6 -59 10 3 16 31 20 94 3 53 12 102 22 121 18 33 23 73 10 73 -5 0 -17
-7 -28 -16z"/>
<path d="M5580 1301 c0 -17 5 -31 10 -31 6 0 10 11 10 24 0 14 -4 28 -10 31
-6 4 -10 -7 -10 -24z"/>
<path d="M5300 1300 c0 -12 6 -49 14 -83 8 -34 18 -91 23 -126 6 -51 13 -67
32 -80 l24 -16 -6 123 c-6 104 -5 122 8 122 15 0 19 -12 30 -90 19 -128 20
-150 13 -150 -4 0 -8 -7 -8 -15 0 -13 54 -55 71 -55 4 0 5 57 3 128 l-4 127
-82 58 c-114 80 -118 82 -118 57z"/>
<path d="M4594 1279 c4 -19 9 -90 12 -159 8 -170 24 -178 24 -12 l0 132 49
-30 c27 -17 51 -40 55 -53 3 -12 6 -70 6 -129 0 -60 4 -110 10 -113 6 -4 11
39 12 122 l1 128 7 -132 c3 -73 8 -134 11 -136 2 -3 19 -12 38 -22 l34 -17 -6
92 c-4 51 -7 122 -7 157 0 36 -4 63 -10 63 -6 0 -56 28 -113 63 -56 35 -108
67 -116 71 -11 7 -12 2 -7 -25z"/>
<path d="M5699 1212 c-3 -20 -2 -29 4 -23 5 5 7 19 5 32 -3 20 -5 19 -9 -9z"/>
<path d="M2193 1208 c-20 -10 -23 -19 -24 -77 0 -36 -4 -93 -8 -126 -9 -68 -8
-73 14 -55 11 9 15 32 15 81 0 45 7 86 20 119 29 74 27 79 -17 58z"/>
<path d="M5730 1191 c0 -16 5 -33 10 -36 6 -4 10 6 10 24 0 16 -4 33 -10 36
-6 4 -10 -6 -10 -24z"/>
<path d="M2884 1183 c-30 -15 -30 -16 -30 -91 1 -43 -1 -108 -3 -147 -7 -112
13 -81 25 40 7 63 19 124 28 142 10 18 16 41 14 52 -3 17 -5 17 -34 4z"/>
<path d="M5774 1163 c3 -8 6 -21 6 -29 0 -23 17 -16 22 10 4 18 0 26 -14 30
-14 3 -18 1 -14 -11z"/>
<path d="M2103 1152 c-18 -14 -22 -27 -22 -87 -1 -38 -5 -94 -9 -122 -5 -29
-5 -53 -1 -53 14 0 39 44 29 50 -11 7 6 141 19 150 11 7 24 80 14 80 -4 0 -18
-8 -30 -18z"/>
<path d="M3685 1150 c-13 -5 -14 -9 -5 -9 8 0 24 4 35 9 13 5 14 9 5 9 -8 0
-24 -4 -35 -9z"/>
<path d="M3903 1153 c9 -2 25 -2 35 0 9 3 1 5 -18 5 -19 0 -27 -2 -17 -5z"/>
<path d="M3720 1138 c-25 -6 -40 -12 -35 -14 6 -2 39 2 75 10 36 8 52 14 35
14 -16 0 -50 -5 -75 -10z"/>
<path d="M5830 1140 c0 -5 5 -10 11 -10 5 0 7 5 4 10 -3 6 -8 10 -11 10 -2 0
-4 -4 -4 -10z"/>
<path d="M2768 1125 c-23 -13 -26 -19 -21 -53 3 -21 0 -85 -6 -142 -6 -57 -9
-105 -7 -107 2 -3 16 3 31 13 25 16 26 21 20 63 -11 76 -7 134 9 166 17 31 21
75 9 75 -5 -1 -20 -7 -35 -15z"/>
<path d="M5595 1068 c4 -29 9 -88 11 -132 3 -81 12 -97 57 -110 13 -3 17 0 13
12 -2 9 -7 63 -11 119 -5 85 -4 102 7 98 16 -6 38 -131 38 -212 0 -49 2 -54
31 -68 17 -9 33 -15 35 -12 2 2 -1 50 -6 107 -9 83 -8 105 2 111 8 5 9 11 3
17 -22 20 -174 122 -180 122 -4 0 -4 -24 0 -52z"/>
<path d="M5926 1054 c9 -39 24 -54 24 -25 0 12 -7 29 -15 38 -14 14 -15 13 -9
-13z"/>
<path d="M1908 1038 c-13 -10 -19 -42 -27 -133 -5 -66 -8 -122 -5 -124 2 -2
-4 -10 -14 -18 -14 -11 -11 -11 13 1 22 10 31 22 33 42 1 15 9 72 17 127 8 55
15 104 15 109 0 12 -14 10 -32 -4z"/>
<path d="M5971 1028 c1 -7 5 -24 9 -38 7 -22 8 -20 7 13 0 20 -4 37 -9 37 -4
0 -8 -6 -7 -12z"/>
<path d="M5035 929 c5 -77 10 -97 27 -111 11 -10 24 -18 29 -18 11 0 11 44 3
127 -6 53 -10 62 -36 78 l-30 18 7 -94z"/>
<path d="M6010 1011 c0 -5 5 -13 10 -16 6 -3 10 -2 10 4 0 5 -4 13 -10 16 -5
3 -10 2 -10 -4z"/>
<path d="M2268 984 c-38 -20 -36 -28 2 -9 17 9 30 18 30 20 0 7 -1 6 -32 -11z"/>
<path d="M3097 979 c-22 -11 -37 -23 -34 -25 5 -6 87 33 87 41 0 9 -14 4 -53
-16z"/>
<path d="M2554 968 c-23 -11 -26 -27 -40 -212 -7 -86 -6 -88 13 -77 16 8 22
24 27 83 4 40 12 98 17 129 14 73 11 89 -17 77z"/>
<path d="M6076 955 c4 -8 8 -15 10 -15 2 0 4 7 4 15 0 8 -4 15 -10 15 -5 0 -7
-7 -4 -15z"/>
<path d="M3880 890 l0 -70 58 0 c31 0 67 -3 80 -6 21 -6 22 -4 22 64 0 81 -1
82 -96 82 l-64 0 0 -70z"/>
<path d="M5130 927 c0 -19 3 -62 6 -96 7 -60 8 -63 46 -82 22 -11 42 -18 45
-15 4 3 2 44 -3 91 l-9 86 -42 25 -43 25 0 -34z"/>
<path d="M2178 934 c-38 -20 -36 -28 2 -9 17 9 30 18 30 20 0 7 -1 6 -32 -11z"/>
<path d="M3721 938 c-41 -9 -43 -11 -37 -40 3 -17 6 -48 6 -70 l0 -40 38 6
c101 18 92 10 92 87 0 69 0 69 -27 68 -16 -1 -48 -6 -72 -11z"/>
<path d="M4092 928 c6 -18 48 -38 81 -38 26 0 27 -2 27 -55 0 -41 4 -55 14
-55 11 0 15 17 18 65 l3 66 -49 14 c-62 19 -99 19 -94 3z"/>
<path d="M5854 868 c16 -176 16 -178 48 -194 l30 -16 -6 49 c-17 153 -18 188
-3 173 10 -10 18 -54 25 -128 8 -90 14 -116 29 -127 38 -30 43 -20 37 78 -3
50 -7 97 -9 104 -2 6 1 14 8 16 7 2 10 6 7 9 -16 15 -158 108 -164 108 -5 0
-6 -33 -2 -72z"/>
<path d="M398 923 c7 -3 16 -2 19 1 4 3 -2 6 -13 5 -11 0 -14 -3 -6 -6z"/>
<path d="M2453 912 c-19 -15 -22 -27 -22 -97 -1 -44 -5 -104 -9 -132 -10 -59
1 -69 33 -33 13 14 14 20 5 20 -19 0 -6 136 20 191 11 24 20 50 20 57 0 17
-21 15 -47 -6z"/>
<path d="M445 910 c27 -12 43 -12 25 0 -8 5 -22 9 -30 9 -10 0 -8 -3 5 -9z"/>
<path d="M6150 904 c0 -8 5 -12 10 -9 6 4 8 11 5 16 -9 14 -15 11 -15 -7z"/>
<path d="M2070 875 c-14 -8 -20 -14 -14 -15 5 0 19 7 30 15 24 18 16 19 -16 0z"/>
<path d="M6180 880 c0 -5 5 -10 10 -10 6 0 10 5 10 10 0 6 -4 10 -10 10 -5 0
-10 -4 -10 -10z"/>
<path d="M2853 863 c-18 -9 -33 -20 -33 -25 0 -5 18 1 40 12 22 11 40 23 40
25 0 8 -13 5 -47 -12z"/>
<path d="M4155 866 c32 -14 41 -13 30 3 -3 6 -18 11 -33 11 l-27 -1 30 -13z"/>
<path d="M391 844 c0 -11 3 -14 6 -6 3 7 2 16 -1 19 -3 4 -6 -2 -5 -13z"/>
<path d="M2321 847 c-20 -10 -22 -16 -18 -51 3 -22 1 -80 -4 -129 -9 -79 -8
-109 5 -96 2 2 9 49 16 104 7 55 16 105 21 112 6 6 14 25 19 42 10 34 2 38
-39 18z"/>
<path d="M4100 834 c0 -25 4 -28 50 -38 22 -4 26 -1 28 19 1 19 -4 26 -26 31
-15 3 -33 7 -39 10 -8 2 -13 -6 -13 -22z"/>
<path d="M354 828 l-19 -23 23 19 c21 18 27 26 19 26 -2 0 -12 -10 -23 -22z"/>
<path d="M4957 838 c-14 -11 -15 -20 -6 -60 8 -34 15 -46 27 -45 17 1 817
-425 838 -446 7 -7 15 -22 18 -33 6 -20 3 -20 -56 9 -35 16 -228 117 -430 223
-201 107 -371 194 -378 194 -6 0 -10 -6 -7 -12 2 -7 9 -12 16 -11 12 3 630
-319 826 -431 25 -14 31 -23 27 -40 -5 -17 -7 -18 -10 -4 -2 9 -11 16 -20 16
-9 0 -34 7 -56 16 l-38 17 5 -66 c3 -37 8 -69 10 -72 3 -3 0 -25 -8 -49 -7
-24 -9 -41 -4 -38 5 3 9 13 10 22 0 12 3 11 9 -6 9 -21 15 -22 101 -21 l91 1
-4 43 c-4 34 -1 45 13 56 12 9 17 20 13 33 -7 20 -5 20 48 -6 28 -13 43 -36
33 -47 -3 -3 -10 1 -15 9 -14 23 -31 -1 -34 -49 l-3 -41 149 0 c84 0 158 5
169 10 10 6 19 7 19 2 0 -4 14 -9 30 -10 19 -1 30 2 30 10 0 9 3 8 10 -2 6 -9
10 -10 10 -3 0 7 8 17 19 22 15 9 18 7 17 -7 -1 -13 8 -18 38 -20 32 -3 38 -1
32 13 -3 9 -2 13 4 10 13 -8 13 8 -1 22 -7 7 -5 12 9 15 17 5 21 -1 27 -28 4
-24 11 -34 24 -34 16 0 18 7 15 51 -2 35 -9 55 -21 64 -16 12 -18 11 -21 -10
-3 -26 -42 -42 -54 -22 -4 7 -11 29 -14 49 -4 24 -15 43 -32 54 l-25 16 7 -78
c9 -101 -8 -89 -24 16 -10 67 -27 100 -50 100 -4 0 -5 -22 -2 -49 7 -78 -28
-120 -43 -51 -4 17 -11 30 -15 30 -5 0 -12 27 -16 60 -5 47 -11 63 -30 75 -13
8 -26 15 -29 15 -3 0 -3 -29 1 -64 9 -90 -6 -93 -124 -26 -49 27 -93 50 -98
50 -4 0 -15 6 -23 14 -9 7 -43 28 -76 46 -33 18 -84 46 -113 62 -29 17 -56 27
-59 24 -8 -7 -9 -6 52 -41 28 -15 60 -37 73 -48 12 -11 22 -17 22 -13 0 4 9 2
20 -4 12 -6 20 -21 20 -35 0 -24 -1 -24 -97 26 -54 28 -102 56 -108 63 -5 6
-15 11 -20 11 -16 0 -285 146 -285 154 0 4 -6 8 -13 8 -22 0 -318 164 -324
179 -3 8 -9 11 -14 9 -5 -3 -21 1 -37 9 -24 12 -28 20 -25 41 6 31 21 32 33 3
5 -13 9 -17 9 -9 1 9 9 11 26 7 35 -9 31 9 -5 24 -16 7 -35 18 -41 26 -14 17
-21 17 -42 2z m960 -570 c-3 -7 -5 -2 -5 12 0 14 2 19 5 13 2 -7 2 -19 0 -25z
m-34 -17 c15 -8 27 -18 27 -23 0 -4 7 -8 15 -8 8 0 15 -5 15 -11 0 -5 4 -8 10
-4 9 6 89 -31 122 -57 13 -9 15 -17 8 -28 -8 -13 -10 -12 -10 4 0 14 -3 16
-13 8 -15 -13 -91 25 -93 46 -3 23 -4 24 -19 12 -11 -10 -18 -9 -30 4 -9 9
-23 16 -30 16 -7 0 -20 14 -29 31 -8 17 -12 29 -8 27 4 -2 19 -10 35 -17z
m118 2 c16 -10 29 -23 29 -30 0 -7 7 -10 16 -6 10 4 17 -2 21 -17 4 -16 8 -18
14 -8 7 10 9 9 9 -4 0 -22 -28 -24 -36 -3 -4 8 -10 12 -15 10 -20 -13 -89 41
-89 69 0 11 22 6 51 -11z m-121 -73 c0 -5 7 -10 15 -10 18 0 20 -16 3 -26 -7
-5 -8 -3 -4 5 6 8 2 11 -10 9 -11 -2 -20 4 -22 15 -2 9 1 17 7 17 6 0 11 -4
11 -10z m267 -13 c4 -7 9 -20 10 -30 3 -15 0 -16 -20 -6 -21 11 -37 28 -37 39
0 11 40 8 47 -3z m-217 -22 c0 -8 -4 -15 -10 -15 -5 0 -7 7 -4 15 4 8 8 15 10
15 2 0 4 -7 4 -15z m269 -13 c7 -14 6 -18 -8 -19 -10 -1 -17 6 -18 18 -2 24
13 25 26 1z m-61 -18 c12 -8 22 -24 22 -34 0 -19 -1 -19 -35 1 -35 21 -41 30
-28 42 9 10 16 9 41 -9z m72 -46 c0 -11 -15 -17 -25 -10 -6 4 -11 15 -13 25
-3 16 -1 16 17 5 12 -7 21 -16 21 -20z m-94 -13 c18 -14 18 -14 -7 -15 -16 0
-26 5 -26 15 0 19 8 19 33 0z m194 5 c0 -5 -7 -10 -15 -10 -8 0 -15 5 -15 10
0 6 7 10 15 10 8 0 15 -4 15 -10z m-50 -40 c0 -5 -2 -10 -4 -10 -3 0 -8 5 -11
10 -3 6 -1 10 4 10 6 0 11 -4 11 -10z"/>
<path d="M6245 840 c-3 -5 -1 -10 4 -10 6 0 11 5 11 10 0 6 -2 10 -4 10 -3 0
-8 -4 -11 -10z"/>
<path d="M3213 822 l-33 -17 -5 -160 c-3 -88 -8 -184 -10 -213 -4 -47 -3 -53
13 -50 12 2 20 20 29 58 l11 55 2 -50 2 -50 8 40 c4 22 10 95 13 163 4 104 3
123 -9 118 -8 -3 -14 -1 -14 4 0 6 4 10 9 10 11 0 17 17 27 73 7 42 3 43 -43
19z m4 -314 c-3 -8 -6 -5 -6 6 -1 11 2 17 5 13 3 -3 4 -12 1 -19z"/>
<path d="M5334 754 c4 -49 12 -94 17 -101 6 -6 24 -16 41 -22 l31 -11 -7 61
c-3 34 -6 74 -6 89 0 21 -9 31 -41 50 l-42 23 7 -89z"/>
<path d="M2748 809 c-21 -11 -38 -22 -38 -24 0 -3 18 4 40 15 22 11 40 23 40
25 0 7 0 7 -42 -16z"/>
<path d="M1944 804 c-18 -14 -18 -15 4 -4 12 6 22 13 22 15 0 8 -5 6 -26 -11z"/>
<path d="M6280 810 c0 -5 5 -10 10 -10 6 0 10 5 10 10 0 6 -4 10 -10 10 -5 0
-10 -4 -10 -10z"/>
<path d="M2228 799 c-14 -8 -18 -25 -19 -82 0 -40 -4 -99 -8 -132 -5 -33 -6
-62 -4 -65 3 -3 13 6 24 19 14 17 16 27 9 36 -13 16 2 125 24 177 9 21 16 42
16 48 0 13 -20 12 -42 -1z"/>
<path d="M374 775 c-3 -8 -4 -20 -2 -27 3 -7 7 -1 10 15 6 29 1 36 -8 12z"/>
<path d="M6083 754 c4 -21 9 -76 13 -122 6 -68 11 -86 28 -97 11 -8 23 -15 26
-15 3 0 2 45 -3 101 -8 91 -6 121 8 107 3 -3 10 -55 17 -117 10 -101 14 -114
35 -128 13 -9 26 -14 28 -11 2 2 0 45 -5 95 -5 51 -7 98 -4 106 3 10 -16 30
-58 59 -98 68 -92 66 -85 22z"/>
<path d="M6330 781 c0 -5 5 -13 10 -16 6 -3 10 -2 10 4 0 5 -4 13 -10 16 -5 3
-10 2 -10 -4z"/>
<path d="M3083 764 l-33 -14 0 -108 c0 -59 -3 -153 -7 -209 -3 -57 -3 -103 0
-103 19 0 57 22 57 32 0 9 -3 8 -10 -2 -12 -18 -12 70 0 145 l7 50 3 -50 3
-50 7 65 c14 126 21 260 13 259 -4 0 -23 -7 -40 -15z"/>
<path d="M3740 767 l-55 -12 -3 -137 -3 -136 43 5 c96 10 88 -1 88 131 0 64 3
127 6 140 7 25 5 25 -76 9z"/>
<path d="M3871 640 l-3 -140 81 0 81 0 0 58 c0 31 3 94 7 140 l6 82 -84 0 -84
0 -4 -140z"/>
<path d="M5080 772 c0 -5 61 -42 135 -82 104 -58 135 -79 135 -95 0 -15 2 -17
9 -6 5 8 16 11 25 8 8 -3 17 -3 20 1 4 6 -304 182 -318 182 -3 0 -6 -4 -6 -8z"/>
<path d="M4092 759 c2 -7 22 -18 44 -24 22 -6 33 -13 25 -16 -12 -4 -12 -7 2
-12 9 -3 17 -2 17 3 0 6 5 10 10 10 6 0 10 -48 10 -125 0 -104 2 -125 15 -125
13 0 15 22 15 135 l0 134 -37 10 c-86 21 -106 24 -101 10z"/>
<path d="M5450 703 c0 -37 3 -78 6 -91 6 -20 49 -52 71 -52 4 0 7 38 5 84 l-3
83 -40 22 -39 22 0 -68z"/>
<path d="M2135 749 c-16 -8 -20 -18 -17 -48 2 -21 -1 -78 -7 -127 -7 -59 -8
-90 -1 -92 6 -2 7 -8 4 -13 -7 -12 40 7 121 49 85 44 61 40 -29 -5 -42 -20
-78 -35 -81 -32 -7 8 13 156 26 194 32 90 31 97 -16 74z"/>
<path d="M4606 728 c5 -18 9 -116 9 -217 l0 -185 123 -54 c68 -30 125 -52 127
-50 1 1 0 94 -3 206 l-5 203 -130 65 -130 66 9 -34z m138 -93 c3 -9 6 -83 6
-165 l0 -148 -36 3 c-70 6 -74 17 -74 207 l0 168 49 -24 c27 -14 51 -32 55
-41z m45 -72 c1 -18 -3 -33 -9 -33 -5 0 -10 24 -9 53 0 38 3 47 9 32 5 -11 9
-35 9 -52z m5 -154 c6 -100 4 -131 -8 -118 -9 10 -18 229 -9 229 6 0 13 -50
17 -111z"/>
<path d="M6372 735 c0 -16 2 -22 5 -12 2 9 2 23 0 30 -3 6 -5 -1 -5 -18z"/>
<path d="M406 723 c-4 -9 -2 -21 4 -27 12 -12 15 -8 24 22 9 27 -18 32 -28 5z"/>
<path d="M6400 714 c0 -8 5 -12 10 -9 6 3 10 10 10 16 0 5 -4 9 -10 9 -5 0
-10 -7 -10 -16z"/>
<path d="M2053 707 c-20 -9 -23 -18 -24 -66 0 -31 -4 -87 -8 -126 -5 -38 -7
-72 -5 -74 9 -10 16 12 28 98 8 50 19 98 26 106 6 7 10 27 8 43 -3 26 -5 28
-25 19z"/>
<path d="M6431 702 c0 -4 4 -16 8 -26 7 -19 8 -19 13 1 4 14 0 24 -8 27 -8 3
-14 2 -13 -2z"/>
<path d="M4143 673 c2 -10 8 -25 12 -34 4 -12 -2 -20 -24 -30 -28 -12 -31 -19
-31 -56 0 -24 0 -46 -1 -50 0 -10 70 -27 78 -20 3 3 2 51 -2 106 -6 80 -10
101 -22 101 -10 0 -14 -6 -10 -17z"/>
<path d="M6470 656 c0 -14 5 -28 10 -31 6 -3 10 5 10 19 0 14 -4 28 -10 31 -6
3 -10 -5 -10 -19z"/>
<path d="M2514 654 c-18 -14 -18 -14 6 -3 31 14 36 19 24 19 -6 0 -19 -7 -30
-16z"/>
<path d="M2838 657 c-26 -10 -27 -13 -26 -81 1 -39 -2 -98 -5 -131 -14 -125
-18 -215 -10 -215 5 0 19 7 32 16 22 16 23 21 16 91 -4 49 -3 73 3 69 14 -8
21 77 8 86 -8 5 -7 11 2 20 14 14 16 32 2 23 -6 -4 -10 5 -10 20 0 14 7 28 15
31 10 4 15 20 15 45 0 42 -1 42 -42 26z"/>
<path d="M4101 644 c0 -11 3 -14 6 -6 3 7 2 16 -1 19 -3 4 -6 -2 -5 -13z"/>
<path d="M5627 588 c6 -93 6 -94 44 -113 l32 -17 -5 82 c-4 72 -8 85 -29 101
-41 32 -47 25 -42 -53z"/>
<path d="M6510 644 c0 -8 5 -12 10 -9 6 4 8 11 5 16 -9 14 -15 11 -15 -7z"/>
<path d="M7920 650 c8 -5 22 -9 30 -9 10 0 8 3 -5 9 -27 12 -43 12 -25 0z"/>
<path d="M6293 611 c4 -17 10 -68 13 -112 7 -76 20 -109 45 -109 10 0 8 35 -7
158 -3 23 -1 42 4 42 13 0 19 -28 27 -125 8 -87 18 -115 40 -115 12 0 15 18
13 104 l-3 104 -59 38 c-79 52 -80 52 -73 15z"/>
<path d="M6541 624 c0 -11 3 -14 6 -6 3 7 2 16 -1 19 -3 4 -6 -2 -5 -13z"/>
<path d="M7978 633 c7 -3 16 -2 19 1 4 3 -2 6 -13 5 -11 0 -14 -3 -6 -6z"/>
<path d="M2420 615 c-14 -8 -20 -14 -15 -14 6 0 21 6 35 14 14 8 21 14 15 14
-5 0 -21 -6 -35 -14z"/>
<path d="M2728 608 c-27 -9 -28 -11 -28 -90 0 -44 -5 -134 -11 -199 -7 -66 -9
-122 -6 -126 4 -3 13 0 21 6 10 8 17 43 22 102 3 49 11 89 17 89 6 0 7 16 4
40 -3 24 -1 41 7 45 8 3 8 7 -1 11 -17 8 -16 35 2 70 16 31 20 65 8 63 -5 0
-20 -5 -35 -11z"/>
<path d="M5415 590 c-3 -5 49 -38 115 -75 77 -43 120 -72 120 -83 0 -12 3 -13
11 -5 6 6 19 9 28 6 12 -5 13 -3 5 6 -20 22 -274 159 -279 151z"/>
<path d="M5731 520 c6 -83 16 -101 63 -114 16 -4 17 0 12 26 -3 17 -6 54 -6
82 0 46 -3 53 -31 69 -17 9 -34 17 -37 17 -4 0 -5 -36 -1 -80z"/>
<path d="M6600 560 c0 -16 4 -30 8 -30 5 0 9 14 9 30 0 17 -4 30 -9 30 -4 0
-8 -13 -8 -30z"/>
<path d="M2310 560 c-9 -6 -10 -10 -3 -10 6 0 15 5 18 10 8 12 4 12 -15 0z"/>
<path d="M6630 554 c0 -8 5 -12 10 -9 6 4 8 11 5 16 -9 14 -15 11 -15 -7z"/>
<path d="M5080 496 l0 -55 50 -27 c38 -21 50 -33 50 -51 l0 -23 -40 20 c-54
27 -64 25 -15 -4 22 -12 39 -28 37 -35 -1 -7 2 -18 7 -25 5 -6 7 -23 4 -38 -5
-27 -6 -27 -35 -12 -16 9 -32 13 -35 11 -5 -6 16 -20 94 -64 29 -16 51 -32 48
-35 -3 -2 8 -5 24 -5 l29 0 -4 126 c-2 94 -1 116 6 86 5 -22 10 -67 11 -100 0
-33 3 -64 7 -70 3 -5 5 -22 3 -37 -1 -16 2 -28 8 -28 13 0 14 44 5 193 l-7
106 -117 60 c-65 34 -120 61 -124 61 -3 0 -6 -24 -6 -54z m147 -268 c-3 -8 -6
-5 -6 6 -1 11 2 17 5 13 3 -3 4 -12 1 -19z"/>
<path d="M5890 463 c0 -86 10 -120 37 -132 14 -7 26 -10 28 -9 1 2 0 37 -3 79
-4 71 -6 77 -33 93 l-29 17 0 -48z"/>
<path d="M6484 483 c3 -16 10 -66 17 -113 6 -47 16 -88 22 -92 19 -12 30 -9
24 6 -12 30 -20 191 -9 181 8 -8 32 -156 32 -202 0 -7 9 -17 20 -23 20 -11 20
-9 15 92 l-4 103 -53 37 c-64 45 -71 46 -64 11z"/>
<path d="M6930 500 c0 -5 6 -10 14 -10 8 0 18 5 21 10 3 6 -3 10 -14 10 -12 0
-21 -4 -21 -10z"/>
<path d="M3660 450 c-18 -12 -2 -12 25 0 13 6 15 9 5 9 -8 0 -22 -4 -30 -9z"/>
<path d="M3778 443 c7 -3 16 -2 19 1 4 3 -2 6 -13 5 -11 0 -14 -3 -6 -6z"/>
<path d="M5980 408 c0 -81 10 -115 37 -127 14 -7 28 -10 30 -7 3 3 2 37 -2 76
-6 55 -12 73 -28 85 -32 23 -37 19 -37 -27z"/>
<path d="M3680 430 c-17 -6 -9 -7 25 -3 28 3 52 7 54 9 8 7 -54 2 -79 -6z"/>
<path d="M7858 413 c7 -3 16 -2 19 1 4 3 -2 6 -13 5 -11 0 -14 -3 -6 -6z"/>
<path d="M3520 401 c0 -6 4 -13 10 -16 6 -3 7 1 4 9 -7 18 -14 21 -14 7z"/>
<path d="M7808 403 c6 -2 18 -2 25 0 6 3 1 5 -13 5 -14 0 -19 -2 -12 -5z"/>
<path d="M7768 393 c7 -3 16 -2 19 1 4 3 -2 6 -13 5 -11 0 -14 -3 -6 -6z"/>
<path d="M6660 380 c0 -6 5 -54 12 -106 9 -77 15 -97 31 -106 16 -8 19 -8 14
5 -3 8 -9 52 -12 98 -9 110 8 94 24 -21 15 -111 14 -118 -6 -124 -10 -3 0 -3
22 0 48 7 82 23 49 24 -19 0 -22 8 -28 68 -4 38 -4 75 -1 84 5 11 -7 25 -37
45 -62 43 -68 45 -68 33z"/>
<path d="M7667 373 c-32 -9 -56 -17 -54 -20 5 -4 129 26 136 33 8 7 -23 2 -82
-13z"/>
<path d="M3175 361 c-22 -11 -33 -19 -25 -19 20 -1 99 36 80 37 -8 0 -33 -8
-55 -18z"/>
<path d="M5419 313 c3 -38 5 -100 5 -140 l1 -72 23 21 22 21 0 -26 c0 -15 -5
-27 -12 -27 -6 0 -3 -7 8 -15 16 -12 17 -14 2 -15 -9 0 -23 7 -31 15 -8 7 -28
17 -43 21 -26 6 -27 5 -12 -7 9 -8 20 -26 24 -41 l6 -28 -48 21 c-27 12 -53
25 -58 30 -6 5 -17 9 -25 9 -9 0 -69 25 -135 55 -96 45 -126 54 -155 50 l-36
-5 30 11 c42 16 54 27 50 47 -2 18 -17 18 -71 1 l-31 -9 15 -58 c7 -31 22 -66
32 -77 9 -11 20 -27 23 -35 4 -12 6 -11 6 3 1 9 5 17 10 17 9 0 128 -51 162
-69 8 -5 73 -9 144 -10 113 0 126 1 109 14 -18 14 -18 14 2 15 12 0 24 -7 28
-15 4 -12 26 -15 106 -15 96 0 112 4 91 25 -6 6 -13 63 -17 128 l-7 118 -108
55 c-60 30 -110 54 -112 54 -2 0 -1 -30 2 -67z m188 -150 c-2 -16 -4 -5 -4 22
0 28 2 40 4 28 2 -13 2 -35 0 -50z m-527 -28 c0 -8 -4 -15 -10 -15 -5 0 -10 7
-10 15 0 8 5 15 10 15 6 0 10 -7 10 -15z m50 -20 c0 -8 -4 -15 -10 -15 -5 0
-10 7 -10 15 0 8 5 15 10 15 6 0 10 -7 10 -15z m50 -26 c0 -11 -4 -17 -10 -14
-5 3 -10 13 -10 21 0 8 5 14 10 14 6 0 10 -9 10 -21z m50 -25 c0 -8 -4 -14
-10 -14 -5 0 -10 9 -10 21 0 11 5 17 10 14 6 -3 10 -13 10 -21z m50 -19 c0 -8
-4 -15 -10 -15 -5 0 -10 7 -10 15 0 8 5 15 10 15 6 0 10 -7 10 -15z m180 5 c8
-5 11 -10 5 -10 -5 0 -17 5 -25 10 -8 5 -10 10 -5 10 6 0 17 -5 25 -10z m-143
-32 c-3 -8 -6 -5 -6 6 -1 11 2 17 5 13 3 -3 4 -12 1 -19z"/>
<path d="M6126 313 c8 -88 12 -101 35 -114 11 -6 22 -9 24 -7 2 2 1 36 -2 76
-5 68 -8 74 -35 88 l-28 15 6 -58z"/>
<path d="M7578 343 c7 -3 16 -2 19 1 4 3 -2 6 -13 5 -11 0 -14 -3 -6 -6z"/>
<path d="M7538 333 c7 -3 16 -2 19 1 4 3 -2 6 -13 5 -11 0 -14 -3 -6 -6z"/>
<path d="M3045 310 c-22 -11 -29 -17 -16 -14 38 10 88 33 71 33 -8 0 -33 -8
-55 -19z"/>
<path d="M7498 323 c7 -3 16 -2 19 1 4 3 -2 6 -13 5 -11 0 -14 -3 -6 -6z"/>
<path d="M7458 313 c7 -3 16 -2 19 1 4 3 -2 6 -13 5 -11 0 -14 -3 -6 -6z"/>
<path d="M7418 303 c7 -3 16 -2 19 1 4 3 -2 6 -13 5 -11 0 -14 -3 -6 -6z"/>
<path d="M2089 287 c-25 -9 -27 -15 -33 -91 -3 -45 -9 -107 -12 -138 -7 -57
-6 -58 18 -58 25 0 25 2 43 146 9 80 16 146 14 148 -2 1 -16 -2 -30 -7z"/>
<path d="M4630 290 c8 -5 20 -10 25 -10 6 0 3 5 -5 10 -8 5 -19 10 -25 10 -5
0 -3 -5 5 -10z"/>
<path d="M7355 290 c-13 -5 -14 -9 -5 -9 8 0 24 4 35 9 13 5 14 9 5 9 -8 0
-24 -4 -35 -9z"/>
<path d="M3678 273 c6 -2 18 -2 25 0 6 3 1 5 -13 5 -14 0 -19 -2 -12 -5z"/>
<path d="M3790 269 c-52 -4 -115 -12 -139 -18 -42 -9 -47 2 -6 12 11 3 4 4
-15 3 -47 -3 -58 -11 -55 -38 1 -13 3 -29 4 -36 1 -9 11 -12 28 -10 41 5 44
-28 4 -37 -17 -4 -31 -11 -31 -16 0 -11 17 -12 24 -1 4 7 31 8 55 3 2 -1 -1
-7 -7 -14 -7 -8 -7 -18 -2 -27 6 -8 10 -32 10 -52 0 -37 1 -38 35 -38 31 0 35
3 35 28 0 15 3 44 6 64 l6 37 -33 -5 c-32 -5 -36 -3 -52 31 -10 21 -16 39 -15
41 2 2 40 10 83 18 l80 15 -75 -4 c-56 -4 -69 -2 -51 5 44 19 224 32 341 25
112 -6 262 -36 288 -57 9 -8 12 -6 12 4 0 21 -150 56 -295 68 -66 5 -124 9
-130 8 -5 0 -53 -4 -105 -9z"/>
<path d="M7308 273 c7 -3 16 -2 19 1 4 3 -2 6 -13 5 -11 0 -14 -3 -6 -6z"/>
<path d="M4710 255 c14 -8 30 -14 35 -14 6 0 -1 6 -15 14 -14 8 -29 14 -35 14
-5 0 1 -6 15 -14z"/>
<path d="M7268 263 c7 -3 16 -2 19 1 4 3 -2 6 -13 5 -11 0 -14 -3 -6 -6z"/>
<path d="M1999 246 c-26 -9 -26 -11 -32 -125 -2 -64 -3 -118 -1 -120 8 -9 16
9 21 48 3 23 10 41 15 41 6 0 8 7 5 15 -4 8 -1 17 5 21 7 4 6 9 -2 14 -9 6 -8
15 5 39 9 18 15 42 13 55 -3 19 -6 20 -29 12z"/>
<path d="M2805 220 c-22 -10 -36 -19 -31 -19 17 -2 76 23 76 31 0 10 4 11 -45
-12z"/>
<path d="M4810 210 c8 -5 20 -10 25 -10 6 0 3 5 -5 10 -8 5 -19 10 -25 10 -5
0 -3 -5 5 -10z"/>
<path d="M2700 180 c-8 -5 -26 -7 -40 -4 -61 13 17 -16 193 -72 150 -47 184
-61 167 -68 -29 -13 -19 -30 19 -34 21 -2 37 2 44 12 11 14 15 14 41 1 15 -8
41 -15 56 -15 25 0 28 4 33 48 3 26 4 48 3 50 -2 1 -20 -4 -42 -11 -27 -10
-40 -21 -42 -35 -4 -24 -13 -27 -40 -13 -9 5 -101 35 -204 67 -169 53 -185 60
-165 71 14 8 17 12 7 12 -8 1 -22 -4 -30 -9z"/>
<path d="M7120 186 c0 -2 8 -10 18 -17 15 -13 16 -12 3 4 -13 16 -21 21 -21
13z"/>
<path d="M137 173 c-4 -3 -7 -11 -7 -17 0 -6 5 -5 12 2 6 6 9 14 7 17 -3 3 -9
2 -12 -2z"/>
<path d="M7034 157 c-3 -8 0 -43 5 -78 6 -35 11 -67 11 -71 0 -5 15 -8 33 -8
32 0 33 1 30 38 -1 20 0 29 3 19 8 -25 24 -21 24 6 0 28 -13 44 -63 81 -29 21
-38 24 -43 13z"/>
<path d="M6995 150 c3 -5 11 -10 16 -10 6 0 7 5 4 10 -3 6 -11 10 -16 10 -6 0
-7 -4 -4 -10z"/>
<path d="M5276 135 c23 -17 11 -20 -19 -4 -17 9 -15 5 7 -15 15 -15 31 -25 33
-22 3 3 15 -1 27 -9 11 -8 30 -15 41 -14 11 0 14 3 8 6 -7 2 -13 10 -13 17 0
7 -20 22 -45 34 -53 26 -67 28 -39 7z"/>
<path d="M3829 136 c-2 -2 -2 -34 -1 -70 l4 -66 59 0 59 0 0 40 0 40 40 0 40
0 0 -40 c0 -29 4 -40 15 -40 12 0 15 14 15 64 l0 63 -46 7 c-52 7 -178 8 -185
2z"/>
<path d="M4153 103 c-4 -9 1 -21 10 -28 10 -7 17 -26 17 -44 0 -26 4 -31 24
-31 22 0 24 5 28 50 3 47 1 51 -22 56 -14 3 -31 7 -38 10 -7 2 -16 -4 -19 -13z"/>
<path d="M4640 100 c8 -5 20 -10 25 -10 6 0 3 5 -5 10 -8 5 -19 10 -25 10 -5
0 -3 -5 5 -10z"/>
<path d="M6608 103 c-31 -8 -18 -103 13 -103 30 0 26 64 -3 77 -22 10 -22 11
12 21 34 10 13 14 -22 5z"/>
<path d="M4700 75 c14 -8 30 -14 35 -14 6 0 -1 6 -15 14 -14 8 -29 14 -35 14
-5 0 1 -6 15 -14z"/>
<path d="M115 69 c-4 -6 -5 -13 -2 -16 7 -7 27 6 27 18 0 12 -17 12 -25 -2z"/>
<path d="M2461 59 c-13 -5 -22 -12 -19 -14 6 -6 58 12 58 20 0 7 -11 5 -39 -6z"/>
<path d="M4760 50 c8 -5 20 -10 25 -10 6 0 3 5 -5 10 -8 5 -19 10 -25 10 -5 0
-3 -5 5 -10z"/>
<path d="M4857 49 c7 -7 15 -10 18 -7 3 3 -2 9 -12 12 -14 6 -15 5 -6 -5z"/>
<path d="M7150 52 c0 -12 19 -26 26 -19 2 2 -2 10 -11 17 -9 8 -15 8 -15 2z"/>
<path d="M4162 25 c0 -17 2 -22 5 -12 2 9 2 23 0 30 -3 6 -5 -1 -5 -18z"/>
<path d="M4616 43 c-3 -4 -6 -15 -6 -25 0 -16 8 -18 63 -17 34 0 55 3 47 6 -8
4 -34 14 -57 24 -22 10 -44 15 -47 12z"/>
<path d="M2365 21 c-44 -21 -36 -27 14 -10 17 6 31 15 31 20 0 11 2 12 -45
-10z"/>
<path d="M4810 30 c8 -5 20 -10 25 -10 6 0 3 5 -5 10 -8 5 -19 10 -25 10 -5 0
-3 -5 5 -10z"/>
<path d="M4850 16 c0 -2 7 -7 16 -10 8 -3 12 -2 9 4 -6 10 -25 14 -25 6z"/>
<path d="M6700 10 c0 -5 10 -10 23 -10 18 0 19 2 7 10 -19 13 -30 13 -30 0z"/>
</g>
</svg>
